<?xml version="1.0" standalone="no"?>
<!DOCTYPE svg PUBLIC "-//W3C//DTD SVG 1.1//EN" "http://www.w3.org/Graphics/SVG/1.1/DTD/svg11.dtd" >
<svg xmlns="http://www.w3.org/2000/svg" xmlns:xlink="http://www.w3.org/1999/xlink" version="1.1">
<metadata>
Created by FontForge 20200222 at Thu Jan 14 21:35:19 2016
 By convertio
Copyright C 2016 Hoefler &#38; Co. http:www.typography.com
</metadata>
<defs>
<font id="OperatorMono-MediumItalic" horiz-adv-x="550" >
  <font-face 
    font-family="Operator Mono"
    font-weight="350"
    font-style="italic"
    font-stretch="normal"
    units-per-em="1000"
    panose-1="2 0 0 9 0 0 0 0 0 0"
    ascent="800"
    descent="-200"
    x-height="497"
    cap-height="620"
    bbox="-75 -364 743 1137"
    underline-thickness="89"
    underline-position="-96"
    slope="-11"
    stemh="93"
    stemv="112"
    unicode-range="U+0020-E10D"
  />
<missing-glyph 
d="M8 -200l-15 1000h540l15 -1000h-540zM70 750l199 -390l188 390h-387zM480 676l-179 -376l191 -376zM60 -76l180 376l-192 376zM271 240l-187 -390h387z" />
    <glyph glyph-name=".notdef" 
d="M8 -200l-15 1000h540l15 -1000h-540zM70 750l199 -390l188 390h-387zM480 676l-179 -376l191 -376zM60 -76l180 376l-192 376zM271 240l-187 -390h387z" />
    <glyph glyph-name="NUL" horiz-adv-x="0" 
 />
    <glyph glyph-name="space" unicode=" " 
 />
    <glyph glyph-name="A" unicode="A" 
d="M368 -4c-3 58 -6 116 -9 175h-186c-24 -57 -49 -114 -72 -171h-112c90 206 187 415 287 621h153c19 -204 36 -409 49 -617zM330 526c-40 -90 -81 -181 -121 -272h146c-5 91 -11 182 -17 272h-8z" />
    <glyph glyph-name="B" unicode="B" 
d="M493 192c0 -117 -123 -232 -454 -191l119 615c262 40 367 -30 367 -129c0 -71 -52 -132 -141 -166c68 -19 109 -67 109 -129zM417 463c0 54 -55 86 -164 74l-38 -198c141 9 202 64 202 124zM386 187c0 61 -55 99 -183 88l-37 -187c148 -20 220 32 220 99z" />
    <glyph glyph-name="C" unicode="C" 
d="M376 633c118 0 156 -80 149 -240l-105 -2c3 100 -8 144 -67 144c-107 0 -184 -156 -184 -292c0 -151 94 -194 299 -123l-11 -99c-256 -88 -399 -4 -399 205c0 212 142 407 318 407z" />
    <glyph glyph-name="D" unicode="D" 
d="M528 387c0 -227 -141 -432 -494 -386l119 616c251 41 375 -39 375 -230zM417 376c0 115 -55 169 -170 158l-86 -447c171 -11 256 130 256 289z" />
    <glyph glyph-name="E" unicode="E" 
d="M450 93l-25 -93h-377l120 620h380l-18 -93h-269l-34 -175h228l-16 -81h-228l-35 -178h274z" />
    <glyph glyph-name="F" unicode="F" 
d="M447 255h-235l-50 -255h-111l120 620h390l-17 -95h-280l-36 -184h236z" />
    <glyph glyph-name="G" unicode="G" 
d="M412 -107l-101 -2l25 109c-178 -42 -279 44 -279 219c0 217 140 414 311 414c115 0 157 -77 148 -240l-104 -2c2 97 -9 143 -65 143c-104 0 -178 -157 -178 -299c0 -127 62 -176 189 -138l33 146l104 3z" />
    <glyph glyph-name="H" unicode="H" 
d="M328 0l52 270h-186l-52 -270h-113l120 620h113l-51 -264h186l51 264h112l-120 -620h-112z" />
    <glyph glyph-name="I" unicode="I" 
d="M295 88h144l-21 -88h-390l17 88h139l86 444h-141l17 88h390l-16 -88h-139z" />
    <glyph glyph-name="J" unicode="J" 
d="M364 52c-42 -42 -129 -65 -334 -63l17 101c165 -2 208 1 231 24c16 16 24 43 49 167l49 251h-196l18 88h307l-64 -327c-35 -181 -49 -213 -77 -241z" />
    <glyph glyph-name="K" unicode="K" 
d="M373 -7l-152 317l252 310h119l-252 -311l150 -302zM157 620h110l-120 -620h-111z" />
    <glyph glyph-name="L" unicode="L" 
d="M449 0h-396l120 620h112l-101 -525h284z" />
    <glyph glyph-name="M" unicode="M" 
d="M257 623l27 -366h2l168 363h118l-119 -620h-105l86 425h-4l-141 -302h-61l-22 302h-3l-76 -425h-102l119 617z" />
    <glyph glyph-name="N" unicode="N" 
d="M345 0l-127 425h-5l-79 -425h-104l120 618l107 4l118 -422h5l78 420h104l-120 -620h-97z" />
    <glyph glyph-name="O" unicode="O" 
d="M346 632c111 0 191 -72 191 -235c0 -212 -122 -410 -295 -410c-110 0 -190 72 -190 235c0 212 122 410 294 410zM255 83c99 0 166 158 166 310c0 99 -35 144 -88 144c-98 0 -165 -159 -165 -310c0 -100 34 -144 87 -144z" />
    <glyph glyph-name="P" unicode="P" 
d="M152 0h-110l119 617c274 39 384 -44 384 -165c0 -144 -133 -243 -357 -267zM437 434c0 71 -61 114 -182 97l-48 -248c149 -8 230 59 230 151z" />
    <glyph glyph-name="Q" unicode="Q" 
d="M409 -147l-297 128l27 81c171 65 284 214 284 356c0 82 -37 121 -98 121c-111 0 -182 -154 -133 -376l-96 -35c-90 250 28 506 245 506c131 0 197 -87 197 -212c0 -164 -125 -314 -285 -395l201 -85z" />
    <glyph glyph-name="R" unicode="R" 
d="M372 -8l-133 287v1c128 59 175 110 175 173c0 61 -55 91 -165 78l-102 -531h-110l119 617c277 38 369 -39 369 -142c0 -89 -64 -157 -162 -211l129 -256z" />
    <glyph glyph-name="S" unicode="S" 
d="M522 455l-97 -19c-16 74 -50 103 -107 103c-55 0 -95 -37 -95 -83c0 -104 247 -166 247 -304c0 -103 -125 -205 -443 -140l22 108c228 -62 306 -26 306 26c0 89 -244 152 -244 297c0 99 93 189 229 189c110 0 163 -63 182 -177z" />
    <glyph glyph-name="T" unicode="T" 
d="M385 525l-102 -525h-112l101 525h-178l19 95h469l-19 -95h-178z" />
    <glyph glyph-name="U" unicode="U" 
d="M182 230c-22 -111 12 -148 74 -148c59 0 97 37 114 123l80 415h111l-80 -413c-31 -157 -116 -221 -239 -221c-131 0 -205 73 -170 250l75 384h110z" />
    <glyph glyph-name="V" unicode="V" 
d="M304 0h-155c-22 206 -39 410 -49 616l111 8c6 -172 18 -350 31 -523h9c80 173 160 347 233 519h112c-91 -206 -189 -414 -292 -620z" />
    <glyph glyph-name="W" unicode="W" 
d="M311 0l-17 296l-132 -296h-107c4 118 28 355 67 620h110c-10 -65 -68 -438 -70 -470h4l126 284h62l15 -284h4c10 32 96 405 111 470h108c-65 -267 -132 -503 -171 -620h-110z" />
    <glyph glyph-name="X" unicode="X" 
d="M361 -3l-89 237l-165 -234h-120l239 317l-120 300l115 6l90 -238l165 235h121l-241 -318l120 -299z" />
    <glyph glyph-name="Y" unicode="Y" 
d="M285 0h-111l40 207l-118 411l115 4l80 -311l193 309h119l-279 -420z" />
    <glyph glyph-name="Z" unicode="Z" 
d="M442 0h-425l17 94l381 431l-293 -2l19 97h414l-15 -94l-377 -431l297 2z" />
    <glyph glyph-name="a" unicode="a" 
d="M202 89c34 0 86 31 130 72c10 48 33 165 47 241c-33 11 -65 16 -85 16c-79 0 -146 -130 -146 -249c0 -57 24 -80 54 -80zM516 41c-154 -92 -199 -55 -191 49c-58 -56 -126 -102 -180 -102c-60 0 -105 50 -105 155c0 185 120 365 310 365c45 0 97 -7 149 -22l-68 -352
c-11 -55 -7 -64 75 -39z" />
    <glyph glyph-name="b" unicode="b" 
d="M200 -12c-49 0 -110 13 -157 28l132 681l107 8l-56 -287c56 53 120 94 173 94c63 0 110 -56 110 -168c0 -180 -120 -356 -309 -356zM254 79c80 0 149 123 149 238c0 67 -28 96 -60 96c-37 0 -89 -34 -132 -75l-47 -243c35 -11 68 -16 90 -16z" />
    <glyph glyph-name="c" unicode="c" 
d="M500 328l-98 -1c0 67 -19 92 -68 92c-93 0 -168 -103 -168 -219c0 -115 70 -146 288 -96l10 -56c-274 -128 -405 -30 -405 131c0 176 140 332 305 332c99 0 144 -53 136 -183z" />
    <glyph glyph-name="d" unicode="d" 
d="M206 89c35 0 85 30 126 70l48 247c-34 11 -66 16 -86 16c-79 0 -147 -126 -147 -238c0 -66 26 -95 59 -95zM521 43c-159 -91 -204 -57 -196 44c-56 -55 -122 -99 -175 -99c-61 0 -109 55 -109 166c0 179 119 357 305 357c17 0 35 -1 54 -4l37 190l107 8l-112 -572
c-10 -56 -6 -65 80 -38z" />
    <glyph glyph-name="e" unicode="e" 
d="M480 58c-282 -143 -427 -44 -427 120c0 159 134 334 306 334c91 0 146 -48 146 -125c0 -115 -122 -186 -349 -202c3 -110 81 -131 312 -72zM331 424c-88 0 -152 -88 -170 -180c150 12 243 50 243 120c0 35 -28 60 -73 60z" />
    <glyph glyph-name="f" unicode="f" 
d="M411 14c0 -113 -89 -192 -186 -192c-91 0 -156 76 -156 236c0 60 9 123 24 184l-43 16l16 67h52c74 207 218 380 353 380c117 0 131 -132 6 -274l-46 19c59 80 53 143 -2 143c-75 0 -159 -119 -209 -268l281 1l-16 -87l-208 5c95 -79 134 -158 134 -230zM264 -94
c45 0 76 35 76 89c0 69 -45 147 -150 221c-10 -51 -16 -102 -16 -152c0 -119 41 -158 90 -158z" />
    <glyph glyph-name="g" unicode="g" 
d="M220 124c37 0 78 25 116 72c7 67 26 141 48 200c-37 20 -68 27 -90 27c-81 0 -140 -116 -140 -212c0 -61 28 -87 66 -87zM428 -69c-35 -69 -150 -113 -391 -102l11 103c175 -13 267 0 287 21c19 19 4 86 0 166c-49 -52 -109 -91 -168 -91c-67 0 -119 49 -119 153
c0 164 117 329 286 329c35 0 66 -7 97 -21c11 16 23 25 32 25c25 0 69 -18 69 -37c0 -43 -46 -164 -103 -266c-1 -10 -1 -19 -1 -28c0 -122 28 -196 0 -252z" />
    <glyph glyph-name="h" unicode="h" 
d="M518 41c-132 -81 -197 -60 -197 14c0 76 60 230 60 304c0 32 -13 50 -43 50c-35 0 -82 -28 -135 -82l-63 -327h-105l135 697l107 8l-57 -294c64 65 127 100 186 100c67 0 89 -45 89 -98c0 -99 -62 -261 -62 -312c0 -23 10 -28 74 -6z" />
    <glyph glyph-name="i" unicode="i" 
d="M391 579l-114 -5l32 136l124 6zM483 49c-266 -113 -352 -57 -310 97l71 261l-167 -14l-7 56l208 49h91l-87 -333c-22 -87 -6 -101 191 -60z" />
    <glyph glyph-name="j" unicode="j" 
d="M456 579l-115 -5l34 139l123 6zM-7 -173l9 103c189 -5 213 -3 231 15c32 33 -3 157 72 464l-187 -12l-8 55l224 47l99 -1c-118 -398 -53 -544 -124 -616c-42 -42 -107 -53 -316 -55z" />
    <glyph glyph-name="k" unicode="k" 
d="M381 -7l-157 203c145 83 187 142 187 180c0 24 -16 37 -42 37c-45 0 -101 -37 -162 -100l-61 -313h-105l135 697l107 8l-59 -304c72 73 144 110 207 110c61 0 96 -35 96 -88c0 -64 -52 -139 -183 -221l158 -195z" />
    <glyph glyph-name="l" unicode="l" 
d="M475 63c-189 -110 -316 -94 -350 45c-22 -13 -45 -27 -48 -29l-26 44c4 3 40 26 66 43c-1 9 -1 18 -1 27c0 274 170 514 320 514c63 0 102 -40 102 -112c0 -124 -102 -276 -311 -429c15 -104 89 -109 231 -49zM397 602c-71 0 -166 -160 -173 -367
c152 128 215 240 215 314c0 36 -18 53 -42 53z" />
    <glyph glyph-name="m" unicode="m" 
d="M523 20c-108 -45 -152 -38 -152 19c0 62 63 280 63 338c0 18 -5 29 -21 29c-17 0 -40 -12 -66 -36l-72 -370h-77l66 337c9 44 8 69 -17 69c-18 0 -42 -12 -67 -37c-25 -130 -63 -327 -71 -369h-101c46 236 68 348 92 494l96 6c-1 -6 -4 -34 -7 -57c40 44 79 66 112 66
c36 0 55 -24 54 -75c47 50 92 75 130 75c39 0 59 -23 59 -69c0 -89 -71 -307 -71 -357c0 -14 9 -17 40 -8z" />
    <glyph glyph-name="n" unicode="n" 
d="M518 41c-132 -81 -197 -60 -197 14c0 76 60 229 60 304c0 32 -13 50 -43 50c-34 0 -80 -26 -132 -77c-12 -64 -60 -297 -66 -332h-105c46 236 68 348 89 495l105 6c-1 -8 -8 -54 -13 -92c65 66 130 102 190 102c67 0 89 -45 89 -98c0 -99 -62 -261 -62 -312
c0 -23 10 -28 74 -6z" />
    <glyph glyph-name="o" unicode="o" 
d="M46 192c0 172 115 320 270 320c115 0 189 -76 189 -205c0 -174 -115 -320 -270 -320c-116 0 -189 75 -189 205zM397 293c0 83 -36 130 -96 130c-87 0 -147 -105 -147 -217c0 -83 36 -130 96 -130c87 0 147 104 147 217z" />
    <glyph glyph-name="p" unicode="p" 
d="M253 77c80 0 148 125 148 238c0 66 -26 95 -59 95c-36 0 -90 -32 -133 -74c-7 -40 -26 -140 -46 -242c36 -12 69 -17 90 -17zM112 -168l-105 -8c62 326 100 515 122 671l104 6c-1 -7 -8 -53 -14 -91c57 55 125 100 179 100c61 0 110 -54 110 -165
c0 -180 -120 -357 -307 -357c-18 0 -37 1 -58 4c-14 -75 -27 -138 -31 -160z" />
    <glyph glyph-name="q" unicode="q" 
d="M510 -127c-179 -92 -232 -64 -210 56l28 147c-54 -50 -116 -88 -169 -88c-64 0 -116 55 -116 167c0 181 121 356 317 356c46 0 106 -13 151 -29l-103 -524c-9 -49 -4 -54 92 -31zM212 88c37 0 87 30 131 69l47 249c-36 10 -69 16 -92 16c-84 0 -149 -125 -149 -239
c0 -65 28 -95 63 -95z" />
    <glyph glyph-name="r" unicode="r" 
d="M507 32c-235 -105 -304 -26 -139 349c-43 -12 -87 -20 -127 -22c-37 -67 -96 -143 -166 -213l-39 40c58 68 101 123 130 178c-35 8 -58 26 -58 56c0 51 60 112 120 112c31 0 51 -20 51 -55c0 -9 -1 -19 -3 -29c61 10 129 30 181 56l51 -25c-170 -410 -146 -431 -8 -392z
" />
    <glyph glyph-name="s" unicode="s" 
d="M474 144c0 -84 -79 -161 -359 -152l2 97c197 -14 250 7 250 49c0 45 -64 99 -110 162c-44 -32 -98 -67 -166 -103l-24 49c72 47 122 82 156 113c-8 18 -12 36 -12 55c0 68 66 120 127 120c70 0 94 -64 3 -161c38 -68 133 -147 133 -229z" />
    <glyph glyph-name="t" unicode="t" 
d="M464 52c-258 -134 -357 -47 -320 119l54 241h-92l21 83h60l86 139l81 6l-32 -145h180l-16 -83h-183l-52 -235c-22 -95 8 -124 206 -71z" />
    <glyph glyph-name="u" unicode="u" 
d="M522 41c-151 -90 -202 -57 -191 48c-60 -67 -116 -102 -172 -102c-76 0 -112 61 -85 184l36 167l-49 32l84 126l105 7l-69 -318c-15 -67 -2 -96 36 -96c36 0 81 29 129 86l63 323h104l-71 -364c-11 -55 -7 -66 70 -39z" />
    <glyph glyph-name="v" unicode="v" 
d="M254 109c71 130 136 261 200 389h110c-82 -161 -179 -341 -272 -502h-131c-30 165 -57 334 -76 498l107 8c14 -129 33 -262 54 -393h8z" />
    <glyph glyph-name="w" unicode="w" 
d="M309 0l-32 236l-123 -236h-100c4 108 23 309 50 497h106c-24 -132 -39 -235 -60 -370h3l121 240h65l28 -241h5c31 140 54 241 80 371h111c-41 -158 -85 -298 -153 -497h-101z" />
    <glyph glyph-name="x" unicode="x" 
d="M346 -2l-89 190l-155 -188h-114l218 249l-122 246l118 5l90 -190l155 188h114l-218 -249l122 -246z" />
    <glyph glyph-name="y" unicode="y" 
d="M429 -68c-36 -70 -145 -113 -382 -102l15 103c171 -13 257 -1 278 19c20 20 11 86 7 172c-54 -52 -124 -92 -189 -92c-96 0 -152 92 -14 464l104 4c-112 -316 -86 -373 -33 -373c34 0 83 25 132 72c6 149 73 309 110 309c28 0 74 -12 74 -33c0 -47 -38 -174 -93 -274v-6
c0 -98 21 -203 -9 -263z" />
    <glyph glyph-name="z" unicode="z" 
d="M430 0h-402l18 90l338 317l-276 -3l25 94h393l-18 -90l-337 -317l285 3z" />
    <glyph glyph-name="Aacute" unicode="&#xc1;" 
d="M234 729c64 37 166 111 227 168l70 -84c-72 -51 -200 -105 -277 -131zM368 -4c-3 58 -6 116 -9 175h-186c-24 -57 -49 -114 -72 -171h-112c90 206 187 415 287 621h153c19 -204 36 -409 49 -617zM330 526c-40 -90 -81 -181 -121 -272h146c-5 91 -11 182 -17 272h-8z" />
    <glyph glyph-name="aacute" unicode="&#xe1;" 
d="M230 616c64 37 166 111 227 168l70 -84c-72 -51 -200 -105 -277 -131zM202 89c34 0 86 31 130 72c10 48 33 165 47 241c-33 11 -65 16 -85 16c-79 0 -146 -130 -146 -249c0 -57 24 -80 54 -80zM516 41c-154 -92 -199 -55 -191 49c-58 -56 -126 -102 -180 -102
c-60 0 -105 50 -105 155c0 185 120 365 310 365c45 0 97 -7 149 -22l-68 -352c-11 -55 -7 -64 75 -39z" />
    <glyph glyph-name="Abreve" unicode="&#x102;" 
d="M530 871l61 -37c-72 -93 -149 -147 -224 -147c-71 0 -130 49 -168 147l80 43c32 -74 63 -106 111 -106c46 0 87 37 140 100zM368 -4c-3 58 -6 116 -9 175h-186c-24 -57 -49 -114 -72 -171h-112c90 206 187 415 287 621h153c19 -204 36 -409 49 -617zM330 526
c-40 -90 -81 -181 -121 -272h146c-5 91 -11 182 -17 272h-8z" />
    <glyph glyph-name="abreve" unicode="&#x103;" 
d="M525 758l61 -37c-72 -93 -149 -147 -224 -147c-71 0 -130 49 -168 147l80 43c32 -74 63 -106 111 -106c46 0 87 37 140 100zM202 89c34 0 86 31 130 72c10 48 33 165 47 241c-33 11 -65 16 -85 16c-79 0 -146 -130 -146 -249c0 -57 24 -80 54 -80zM516 41
c-154 -92 -199 -55 -191 49c-58 -56 -126 -102 -180 -102c-60 0 -105 50 -105 155c0 185 120 365 310 365c45 0 97 -7 149 -22l-68 -352c-11 -55 -7 -64 75 -39z" />
    <glyph glyph-name="Acircumflex" unicode="&#xc2;" 
d="M488 680l-98 106l-150 -102l-48 55l214 146h6l149 -149zM368 -4c-3 58 -6 116 -9 175h-186c-24 -57 -49 -114 -72 -171h-112c90 206 187 415 287 621h153c19 -204 36 -409 49 -617zM330 526c-40 -90 -81 -181 -121 -272h146c-5 91 -11 182 -17 272h-8z" />
    <glyph glyph-name="acircumflex" unicode="&#xe2;" 
d="M483 567l-98 106l-150 -102l-48 55l214 146h6l149 -149zM202 89c34 0 86 31 130 72c10 48 33 165 47 241c-33 11 -65 16 -85 16c-79 0 -146 -130 -146 -249c0 -57 24 -80 54 -80zM516 41c-154 -92 -199 -55 -191 49c-58 -56 -126 -102 -180 -102c-60 0 -105 50 -105 155
c0 185 120 365 310 365c45 0 97 -7 149 -22l-68 -352c-11 -55 -7 -64 75 -39z" />
    <glyph glyph-name="Adieresis" unicode="&#xc4;" 
d="M527 700l-113 -1l33 134l123 3zM308 698l-114 -1l33 135l123 1zM368 -4c-3 58 -6 116 -9 175h-186c-24 -57 -49 -114 -72 -171h-112c90 206 187 415 287 621h153c19 -204 36 -409 49 -617zM330 526c-40 -90 -81 -181 -121 -272h146c-5 91 -11 182 -17 272h-8z" />
    <glyph glyph-name="adieresis" unicode="&#xe4;" 
d="M522 587l-113 -1l33 134l123 3zM303 585l-114 -1l33 135l123 1zM202 89c34 0 86 31 130 72c10 48 33 165 47 241c-33 11 -65 16 -85 16c-79 0 -146 -130 -146 -249c0 -57 24 -80 54 -80zM516 41c-154 -92 -199 -55 -191 49c-58 -56 -126 -102 -180 -102
c-60 0 -105 50 -105 155c0 185 120 365 310 365c45 0 97 -7 149 -22l-68 -352c-11 -55 -7 -64 75 -39z" />
    <glyph glyph-name="Agrave" unicode="&#xc0;" 
d="M512 722l-24 -44c-70 28 -183 90 -251 138l66 85c59 -59 148 -136 209 -179zM368 -4c-3 58 -6 116 -9 175h-186c-24 -57 -49 -114 -72 -171h-112c90 206 187 415 287 621h153c19 -204 36 -409 49 -617zM330 526c-40 -90 -81 -181 -121 -272h146c-5 91 -11 182 -17 272h-8
z" />
    <glyph glyph-name="agrave" unicode="&#xe0;" 
d="M508 609l-24 -44c-70 28 -183 90 -251 138l66 85c59 -59 148 -136 209 -179zM202 89c34 0 86 31 130 72c10 48 33 165 47 241c-33 11 -65 16 -85 16c-79 0 -146 -130 -146 -249c0 -57 24 -80 54 -80zM516 41c-154 -92 -199 -55 -191 49c-58 -56 -126 -102 -180 -102
c-60 0 -105 50 -105 155c0 185 120 365 310 365c45 0 97 -7 149 -22l-68 -352c-11 -55 -7 -64 75 -39z" />
    <glyph glyph-name="Amacron" unicode="&#x100;" 
d="M564 812l-17 -89h-346l18 89h345zM368 -4c-3 58 -6 116 -9 175h-186c-24 -57 -49 -114 -72 -171h-112c90 206 187 415 287 621h153c19 -204 36 -409 49 -617zM330 526c-40 -90 -81 -181 -121 -272h146c-5 91 -11 182 -17 272h-8z" />
    <glyph glyph-name="amacron" unicode="&#x101;" 
d="M559 699l-17 -89h-346l18 89h345zM202 89c34 0 86 31 130 72c10 48 33 165 47 241c-33 11 -65 16 -85 16c-79 0 -146 -130 -146 -249c0 -57 24 -80 54 -80zM516 41c-154 -92 -199 -55 -191 49c-58 -56 -126 -102 -180 -102c-60 0 -105 50 -105 155c0 185 120 365 310 365
c45 0 97 -7 149 -22l-68 -352c-11 -55 -7 -64 75 -39z" />
    <glyph glyph-name="Aogonek" unicode="&#x104;" 
d="M446 -168c-160 -79 -245 -36 -246 31c-1 48 46 104 167 154c-3 51 -5 102 -8 154h-186c-24 -57 -49 -114 -72 -171h-112c90 206 187 415 287 621h153c19 -204 36 -409 49 -617c-131 -36 -180 -77 -180 -110c0 -31 38 -46 136 -13zM330 526c-40 -90 -81 -181 -121 -272
h146c-5 91 -11 182 -17 272h-8z" />
    <glyph glyph-name="aogonek" unicode="&#x105;" 
d="M465 -169c-159 -77 -244 -34 -244 31c0 46 35 95 130 148c-22 12 -29 38 -26 80c-58 -56 -126 -102 -180 -102c-60 0 -105 50 -105 155c0 185 120 365 310 365c45 0 97 -7 149 -22l-68 -352c-11 -55 -7 -64 75 -39l10 -54c-147 -60 -197 -108 -197 -146
c0 -32 38 -46 137 -13zM202 89c34 0 86 31 130 72c10 48 33 165 47 241c-33 11 -65 16 -85 16c-79 0 -146 -130 -146 -249c0 -57 24 -80 54 -80z" />
    <glyph glyph-name="Aring" unicode="&#xc5;" 
d="M394 888c75 0 124 -45 124 -99c0 -62 -60 -115 -143 -115c-76 0 -125 45 -125 100c0 62 60 114 144 114zM368 -4c-3 58 -6 116 -9 175h-186c-24 -57 -49 -114 -72 -171h-112c90 206 187 415 287 621h153c19 -204 36 -409 49 -617zM330 526c-40 -90 -81 -181 -121 -272
h146c-5 91 -11 182 -17 272h-8z" />
    <glyph glyph-name="aring" unicode="&#xe5;" 
d="M390 775c75 0 124 -45 124 -99c0 -62 -60 -115 -143 -115c-76 0 -125 45 -125 100c0 62 60 114 144 114zM202 89c34 0 86 31 130 72c10 48 33 165 47 241c-33 11 -65 16 -85 16c-79 0 -146 -130 -146 -249c0 -57 24 -80 54 -80zM516 41c-154 -92 -199 -55 -191 49
c-58 -56 -126 -102 -180 -102c-60 0 -105 50 -105 155c0 185 120 365 310 365c45 0 97 -7 149 -22l-68 -352c-11 -55 -7 -64 75 -39z" />
    <glyph glyph-name="Aringacute" unicode="&#x1fa;" 
d="M288 969c64 37 166 111 227 168l70 -84c-72 -51 -200 -105 -277 -131zM394 888c75 0 124 -45 124 -99c0 -62 -60 -115 -143 -115c-76 0 -125 45 -125 100c0 62 60 114 144 114zM368 -4c-3 58 -6 116 -9 175h-186c-24 -57 -49 -114 -72 -171h-112c90 206 187 415 287 621
h153c19 -204 36 -409 49 -617zM330 526c-40 -90 -81 -181 -121 -272h146c-5 91 -11 182 -17 272h-8z" />
    <glyph glyph-name="aringacute" unicode="&#x1fb;" 
d="M284 858c64 37 166 111 227 168l70 -84c-72 -51 -200 -105 -277 -131zM390 775c75 0 124 -45 124 -99c0 -62 -60 -115 -143 -115c-76 0 -125 45 -125 100c0 62 60 114 144 114zM202 89c34 0 86 31 130 72c10 48 33 165 47 241c-33 11 -65 16 -85 16
c-79 0 -146 -130 -146 -249c0 -57 24 -80 54 -80zM516 41c-154 -92 -199 -55 -191 49c-58 -56 -126 -102 -180 -102c-60 0 -105 50 -105 155c0 185 120 365 310 365c45 0 97 -7 149 -22l-68 -352c-11 -55 -7 -64 75 -39z" />
    <glyph glyph-name="Atilde" unicode="&#xc3;" 
d="M463 773c21 0 49 33 84 86l52 -30c-49 -82 -104 -138 -157 -138c-66 0 -100 93 -136 93c-22 0 -49 -32 -83 -85l-53 30c48 82 104 136 157 136c66 0 99 -92 136 -92zM368 -4c-3 58 -6 116 -9 175h-186c-24 -57 -49 -114 -72 -171h-112c90 206 187 415 287 621h153
c19 -204 36 -409 49 -617zM330 526c-40 -90 -81 -181 -121 -272h146c-5 91 -11 182 -17 272h-8z" />
    <glyph glyph-name="atilde" unicode="&#xe3;" 
d="M458 660c21 0 49 33 84 86l52 -30c-49 -82 -104 -138 -157 -138c-66 0 -100 93 -136 93c-22 0 -49 -32 -83 -85l-53 30c48 82 104 136 157 136c66 0 99 -92 136 -92zM202 89c34 0 86 31 130 72c10 48 33 165 47 241c-33 11 -65 16 -85 16c-79 0 -146 -130 -146 -249
c0 -57 24 -80 54 -80zM516 41c-154 -92 -199 -55 -191 49c-58 -56 -126 -102 -180 -102c-60 0 -105 50 -105 155c0 185 120 365 310 365c45 0 97 -7 149 -22l-68 -352c-11 -55 -7 -64 75 -39z" />
    <glyph glyph-name="Cacute" unicode="&#x106;" 
d="M245 741c64 37 166 111 227 168l70 -84c-72 -51 -200 -105 -277 -131zM376 633c118 0 156 -80 149 -240l-105 -2c3 100 -8 144 -67 144c-107 0 -184 -156 -184 -292c0 -151 94 -194 299 -123l-11 -99c-256 -88 -399 -4 -399 205c0 212 142 407 318 407z" />
    <glyph glyph-name="cacute" unicode="&#x107;" 
d="M218 619c64 37 166 111 227 168l70 -84c-72 -51 -200 -105 -277 -131zM500 328l-98 -1c0 67 -19 92 -68 92c-93 0 -168 -103 -168 -219c0 -115 70 -146 288 -96l10 -56c-274 -128 -405 -30 -405 131c0 176 140 332 305 332c99 0 144 -53 136 -183z" />
    <glyph glyph-name="Ccaron" unicode="&#x10c;" 
d="M375 689h-7l-149 149l73 56l98 -105l150 101l48 -54zM376 633c118 0 156 -80 149 -240l-105 -2c3 100 -8 144 -67 144c-107 0 -184 -156 -184 -292c0 -151 94 -194 299 -123l-11 -99c-256 -88 -399 -4 -399 205c0 212 142 407 318 407z" />
    <glyph glyph-name="ccaron" unicode="&#x10d;" 
d="M349 567h-7l-149 149l73 56l98 -105l150 101l48 -54zM500 328l-98 -1c0 67 -19 92 -68 92c-93 0 -168 -103 -168 -219c0 -115 70 -146 288 -96l10 -56c-274 -128 -405 -30 -405 131c0 176 140 332 305 332c99 0 144 -53 136 -183z" />
    <glyph glyph-name="Ccedilla" unicode="&#xc7;" 
d="M367 -186l-93 -2c5 88 -11 122 -40 122s-57 -36 -87 -97l-55 18c31 75 66 122 105 143c-91 27 -139 107 -139 228c0 212 142 407 318 407c118 0 156 -80 149 -240l-105 -2c3 100 -8 144 -67 144c-107 0 -184 -156 -184 -292c0 -151 94 -194 299 -123l-11 -99
c-53 -18 -101 -29 -145 -33c37 -29 60 -86 55 -174z" />
    <glyph glyph-name="ccedilla" unicode="&#xe7;" 
d="M360 -186l-93 -2c5 88 -11 122 -40 122s-57 -36 -87 -97l-55 18c30 73 64 119 102 141c-86 21 -128 92 -128 183c0 176 140 332 305 332c99 0 144 -53 136 -183l-98 -1c0 67 -19 92 -68 92c-93 0 -168 -103 -168 -219c0 -115 70 -146 288 -96l10 -56
c-63 -29 -118 -47 -166 -54c41 -27 68 -86 62 -180z" />
    <glyph glyph-name="Cdotaccent" unicode="&#x10a;" 
d="M429 711l-116 -1l33 135l126 1zM376 633c118 0 156 -80 149 -240l-105 -2c3 100 -8 144 -67 144c-107 0 -184 -156 -184 -292c0 -151 94 -194 299 -123l-11 -99c-256 -88 -399 -4 -399 205c0 212 142 407 318 407z" />
    <glyph glyph-name="cdotaccent" unicode="&#x10b;" 
d="M403 589l-116 -1l33 135l126 1zM500 328l-98 -1c0 67 -19 92 -68 92c-93 0 -168 -103 -168 -219c0 -115 70 -146 288 -96l10 -56c-274 -128 -405 -30 -405 131c0 176 140 332 305 332c99 0 144 -53 136 -183z" />
    <glyph glyph-name="Dcaron" unicode="&#x10e;" 
d="M363 683h-7l-149 149l73 56l98 -105l150 101l48 -54zM528 387c0 -227 -141 -432 -494 -386l119 616c251 41 375 -39 375 -230zM417 376c0 115 -55 169 -170 158l-86 -447c171 -11 256 130 256 289z" />
    <glyph glyph-name="dcaron" unicode="&#x10f;" 
d="M625 800l118 4c-10 -95 -46 -175 -116 -257l-46 18c39 85 46 157 44 235zM206 89c35 0 85 30 126 70l48 247c-34 11 -66 16 -86 16c-79 0 -147 -126 -147 -238c0 -66 26 -95 59 -95zM521 43c-159 -91 -204 -57 -196 44c-56 -55 -122 -99 -175 -99c-61 0 -109 55 -109 166
c0 179 119 357 305 357c17 0 35 -1 54 -4l37 190l107 8l-112 -572c-10 -56 -6 -65 80 -38z" />
    <glyph glyph-name="Dcroat" unicode="&#x110;" 
d="M528 387c0 -227 -141 -432 -494 -386l53 274h-63l15 77h63l51 265c251 41 375 -39 375 -230zM304 275h-107l-36 -188c171 -11 256 130 256 289c0 115 -55 169 -170 158l-35 -182h112z" />
    <glyph glyph-name="dcroat" unicode="&#x111;" 
d="M206 89c35 0 85 30 126 70l48 247c-34 11 -66 16 -86 16c-79 0 -147 -126 -147 -238c0 -66 26 -95 59 -95zM521 43c-159 -91 -204 -57 -196 44c-56 -55 -122 -99 -175 -99c-61 0 -109 55 -109 166c0 179 119 357 305 357c17 0 35 -1 54 -4l13 64h-128l13 68h128l11 58
l107 8l-13 -66h63l-13 -69h-63l-86 -437c-10 -56 -6 -65 80 -38z" />
    <glyph glyph-name="Eacute" unicode="&#xc9;" 
d="M241 728c64 37 166 111 227 168l70 -84c-72 -51 -200 -105 -277 -131zM450 93l-25 -93h-377l120 620h380l-18 -93h-269l-34 -175h228l-16 -81h-228l-35 -178h274z" />
    <glyph glyph-name="eacute" unicode="&#xe9;" 
d="M221 620c64 37 166 111 227 168l70 -84c-72 -51 -200 -105 -277 -131zM480 58c-282 -143 -427 -44 -427 120c0 159 134 334 306 334c91 0 146 -48 146 -125c0 -115 -122 -186 -349 -202c3 -110 81 -131 312 -72zM331 424c-88 0 -152 -88 -170 -180c150 12 243 50 243 120
c0 35 -28 60 -73 60z" />
    <glyph glyph-name="Ebreve" unicode="&#x114;" 
d="M536 870l61 -37c-72 -93 -149 -147 -224 -147c-71 0 -130 49 -168 147l80 43c32 -74 63 -106 111 -106c46 0 87 37 140 100zM450 93l-25 -93h-377l120 620h380l-18 -93h-269l-34 -175h228l-16 -81h-228l-35 -178h274z" />
    <glyph glyph-name="ebreve" unicode="&#x115;" 
d="M516 762l61 -37c-72 -93 -149 -147 -224 -147c-71 0 -130 49 -168 147l80 43c32 -74 63 -106 111 -106c46 0 87 37 140 100zM480 58c-282 -143 -427 -44 -427 120c0 159 134 334 306 334c91 0 146 -48 146 -125c0 -115 -122 -186 -349 -202c3 -110 81 -131 312 -72z
M331 424c-88 0 -152 -88 -170 -180c150 12 243 50 243 120c0 35 -28 60 -73 60z" />
    <glyph glyph-name="Ecaron" unicode="&#x11a;" 
d="M371 676h-7l-149 149l73 56l98 -105l150 101l48 -54zM450 93l-25 -93h-377l120 620h380l-18 -93h-269l-34 -175h228l-16 -81h-228l-35 -178h274z" />
    <glyph glyph-name="ecaron" unicode="&#x11b;" 
d="M351 568h-7l-149 149l73 56l98 -105l150 101l48 -54zM480 58c-282 -143 -427 -44 -427 120c0 159 134 334 306 334c91 0 146 -48 146 -125c0 -115 -122 -186 -349 -202c3 -110 81 -131 312 -72zM331 424c-88 0 -152 -88 -170 -180c150 12 243 50 243 120
c0 35 -28 60 -73 60z" />
    <glyph glyph-name="Ecircumflex" unicode="&#xca;" 
d="M494 679l-98 106l-150 -102l-48 55l214 146h6l149 -149zM450 93l-25 -93h-377l120 620h380l-18 -93h-269l-34 -175h228l-16 -81h-228l-35 -178h274z" />
    <glyph glyph-name="ecircumflex" unicode="&#xea;" 
d="M474 571l-98 106l-150 -102l-48 55l214 146h6l149 -149zM480 58c-282 -143 -427 -44 -427 120c0 159 134 334 306 334c91 0 146 -48 146 -125c0 -115 -122 -186 -349 -202c3 -110 81 -131 312 -72zM331 424c-88 0 -152 -88 -170 -180c150 12 243 50 243 120
c0 35 -28 60 -73 60z" />
    <glyph glyph-name="Edieresis" unicode="&#xcb;" 
d="M533 699l-113 -1l33 134l123 3zM314 697l-114 -1l33 135l123 1zM450 93l-25 -93h-377l120 620h380l-18 -93h-269l-34 -175h228l-16 -81h-228l-35 -178h274z" />
    <glyph glyph-name="edieresis" unicode="&#xeb;" 
d="M513 591l-113 -1l33 134l123 3zM294 589l-114 -1l33 135l123 1zM480 58c-282 -143 -427 -44 -427 120c0 159 134 334 306 334c91 0 146 -48 146 -125c0 -115 -122 -186 -349 -202c3 -110 81 -131 312 -72zM331 424c-88 0 -152 -88 -170 -180c150 12 243 50 243 120
c0 35 -28 60 -73 60z" />
    <glyph glyph-name="Edotaccent" unicode="&#x116;" 
d="M425 698l-116 -1l33 135l126 1zM450 93l-25 -93h-377l120 620h380l-18 -93h-269l-34 -175h228l-16 -81h-228l-35 -178h274z" />
    <glyph glyph-name="edotaccent" unicode="&#x117;" 
d="M405 590l-116 -1l33 135l126 1zM480 58c-282 -143 -427 -44 -427 120c0 159 134 334 306 334c91 0 146 -48 146 -125c0 -115 -122 -186 -349 -202c3 -110 81 -131 312 -72zM331 424c-88 0 -152 -88 -170 -180c150 12 243 50 243 120c0 35 -28 60 -73 60z" />
    <glyph glyph-name="Egrave" unicode="&#xc8;" 
d="M519 721l-24 -44c-70 28 -183 90 -251 138l66 85c59 -59 148 -136 209 -179zM450 93l-25 -93h-377l120 620h380l-18 -93h-269l-34 -175h228l-16 -81h-228l-35 -178h274z" />
    <glyph glyph-name="egrave" unicode="&#xe8;" 
d="M499 613l-24 -44c-70 28 -183 90 -251 138l66 85c59 -59 148 -136 209 -179zM480 58c-282 -143 -427 -44 -427 120c0 159 134 334 306 334c91 0 146 -48 146 -125c0 -115 -122 -186 -349 -202c3 -110 81 -131 312 -72zM331 424c-88 0 -152 -88 -170 -180
c150 12 243 50 243 120c0 35 -28 60 -73 60z" />
    <glyph glyph-name="Emacron" unicode="&#x112;" 
d="M570 811l-17 -89h-346l18 89h345zM450 93l-25 -93h-377l120 620h380l-18 -93h-269l-34 -175h228l-16 -81h-228l-35 -178h274z" />
    <glyph glyph-name="emacron" unicode="&#x113;" 
d="M550 703l-17 -89h-346l18 89h345zM480 58c-282 -143 -427 -44 -427 120c0 159 134 334 306 334c91 0 146 -48 146 -125c0 -115 -122 -186 -349 -202c3 -110 81 -131 312 -72zM331 424c-88 0 -152 -88 -170 -180c150 12 243 50 243 120c0 35 -28 60 -73 60z" />
    <glyph glyph-name="Eogonek" unicode="&#x118;" 
d="M393 -169c-160 -79 -245 -36 -245 31c0 44 39 93 136 138h-236l120 620h380l-18 -93h-269l-34 -175h228l-16 -81h-228l-35 -178h274l-25 -93c-130 -35 -180 -74 -180 -106c0 -31 39 -47 137 -14z" />
    <glyph glyph-name="eogonek" unicode="&#x119;" 
d="M418 -168c-161 -79 -246 -36 -246 31c0 41 31 85 103 128c-147 -16 -222 69 -222 187c0 159 134 334 306 334c91 0 146 -48 146 -125c0 -115 -122 -186 -349 -202c3 -110 81 -131 312 -72l12 -55c-110 -52 -210 -115 -210 -164c0 -31 39 -46 137 -13zM331 424
c-88 0 -152 -88 -170 -180c150 12 243 50 243 120c0 35 -28 60 -73 60z" />
    <glyph glyph-name="Gbreve" unicode="&#x11e;" 
d="M535 883l61 -37c-72 -93 -149 -147 -224 -147c-71 0 -130 49 -168 147l80 43c32 -74 63 -106 111 -106c46 0 87 37 140 100zM412 -107l-101 -2l25 109c-178 -42 -279 44 -279 219c0 217 140 414 311 414c115 0 157 -77 148 -240l-104 -2c2 97 -9 143 -65 143
c-104 0 -178 -157 -178 -299c0 -127 62 -176 189 -138l33 146l104 3z" />
    <glyph glyph-name="gbreve" unicode="&#x11f;" 
d="M519 764l61 -37c-72 -93 -149 -147 -224 -147c-71 0 -130 49 -168 147l80 43c32 -74 63 -106 111 -106c46 0 87 37 140 100zM220 124c37 0 78 25 116 72c7 67 26 141 48 200c-37 20 -68 27 -90 27c-81 0 -140 -116 -140 -212c0 -61 28 -87 66 -87zM428 -69
c-35 -69 -150 -113 -391 -102l11 103c175 -13 267 0 287 21c19 19 4 86 0 166c-49 -52 -109 -91 -168 -91c-67 0 -119 49 -119 153c0 164 117 329 286 329c35 0 66 -7 97 -21c11 16 23 25 32 25c25 0 69 -18 69 -37c0 -43 -46 -164 -103 -266c-1 -10 -1 -19 -1 -28
c0 -122 28 -196 0 -252z" />
    <glyph glyph-name="Gcommaaccent" unicode="&#x122;" 
d="M412 -107l-101 -2l25 109c-178 -42 -279 44 -279 219c0 217 140 414 311 414c115 0 157 -77 148 -240l-104 -2c2 97 -9 143 -65 143c-104 0 -178 -157 -178 -299c0 -127 62 -176 189 -138l33 146l104 3zM104 -345c35 64 43 133 35 192l135 2c-9 -78 -54 -157 -126 -213z
" />
    <glyph glyph-name="gcommaaccent" unicode="&#x123;" 
d="M434 778c-35 -64 -42 -132 -35 -192l-135 -2c9 78 54 157 127 213zM220 124c37 0 78 25 116 72c7 67 26 141 48 200c-37 20 -68 27 -90 27c-81 0 -140 -116 -140 -212c0 -61 28 -87 66 -87zM428 -69c-35 -69 -150 -113 -391 -102l11 103c175 -13 267 0 287 21
c19 19 4 86 0 166c-49 -52 -109 -91 -168 -91c-67 0 -119 49 -119 153c0 164 117 329 286 329c35 0 66 -7 97 -21c11 16 23 25 32 25c25 0 69 -18 69 -37c0 -43 -46 -164 -103 -266c-1 -10 -1 -19 -1 -28c0 -122 28 -196 0 -252z" />
    <glyph glyph-name="Gdotaccent" unicode="&#x120;" 
d="M424 711l-116 -1l33 135l126 1zM412 -107l-101 -2l25 109c-178 -42 -279 44 -279 219c0 217 140 414 311 414c115 0 157 -77 148 -240l-104 -2c2 97 -9 143 -65 143c-104 0 -178 -157 -178 -299c0 -127 62 -176 189 -138l33 146l104 3z" />
    <glyph glyph-name="gdotaccent" unicode="&#x121;" 
d="M407 592l-116 -1l33 135l126 1zM220 124c37 0 78 25 116 72c7 67 26 141 48 200c-37 20 -68 27 -90 27c-81 0 -140 -116 -140 -212c0 -61 28 -87 66 -87zM428 -69c-35 -69 -150 -113 -391 -102l11 103c175 -13 267 0 287 21c19 19 4 86 0 166c-49 -52 -109 -91 -168 -91
c-67 0 -119 49 -119 153c0 164 117 329 286 329c35 0 66 -7 97 -21c11 16 23 25 32 25c25 0 69 -18 69 -37c0 -43 -46 -164 -103 -266c-1 -10 -1 -19 -1 -28c0 -122 28 -196 0 -252z" />
    <glyph glyph-name="Hbar" unicode="&#x126;" 
d="M394 340l19 100h-186l-19 -100h186zM328 0l49 253h-186l-49 -253h-113l84 436h-64l15 77h64l21 107h113l-21 -110h186l21 110h112l-21 -107h64l-15 -77h-64l-84 -436h-112z" />
    <glyph glyph-name="hbar" unicode="&#x127;" 
d="M518 41c-132 -81 -197 -60 -197 14c0 76 60 228 60 302c0 31 -13 50 -43 50c-35 0 -82 -29 -135 -84l-63 -323h-105l110 570h-62l13 69h63l11 58l107 8l-13 -66h129l-14 -68h-128l-32 -164c64 66 128 101 187 101c67 0 89 -45 89 -98c0 -98 -62 -258 -62 -309
c0 -23 10 -28 74 -6z" />
    <glyph glyph-name="Iacute" unicode="&#xcd;" 
d="M225 728c64 37 166 111 227 168l70 -84c-72 -51 -200 -105 -277 -131zM295 88h144l-21 -88h-390l17 88h139l86 444h-141l17 88h390l-16 -88h-139z" />
    <glyph glyph-name="iacute" unicode="&#xed;" 
d="M202 606c64 37 166 111 227 168l70 -84c-72 -51 -200 -105 -277 -131zM483 49c-266 -113 -352 -57 -310 97l71 261l-167 -14l-7 56l208 49h91l-87 -333c-22 -87 -6 -101 191 -60z" />
    <glyph glyph-name="Ibreve" unicode="&#x12c;" 
d="M521 870l61 -37c-72 -93 -149 -147 -224 -147c-71 0 -130 49 -168 147l80 43c32 -74 63 -106 111 -106c46 0 87 37 140 100zM295 88h144l-21 -88h-390l17 88h139l86 444h-141l17 88h390l-16 -88h-139z" />
    <glyph glyph-name="ibreve" unicode="&#x12d;" 
d="M498 748l61 -37c-72 -93 -149 -147 -224 -147c-71 0 -130 49 -168 147l80 43c32 -74 63 -106 111 -106c46 0 87 37 140 100zM483 49c-266 -113 -352 -57 -310 97l71 261l-167 -14l-7 56l208 49h91l-87 -333c-22 -87 -6 -101 191 -60z" />
    <glyph glyph-name="Icircumflex" unicode="&#xce;" 
d="M478 679l-98 106l-150 -102l-48 55l214 146h6l149 -149zM295 88h144l-21 -88h-390l17 88h139l86 444h-141l17 88h390l-16 -88h-139z" />
    <glyph glyph-name="icircumflex" unicode="&#xee;" 
d="M455 557l-98 106l-150 -102l-48 55l214 146h6l149 -149zM483 49c-266 -113 -352 -57 -310 97l71 261l-167 -14l-7 56l208 49h91l-87 -333c-22 -87 -6 -101 191 -60z" />
    <glyph glyph-name="Idieresis" unicode="&#xcf;" 
d="M518 699l-113 -1l33 134l123 3zM299 697l-114 -1l33 135l123 1zM295 88h144l-21 -88h-390l17 88h139l86 444h-141l17 88h390l-16 -88h-139z" />
    <glyph glyph-name="idieresis" unicode="&#xef;" 
d="M495 577l-113 -1l33 134l123 3zM276 575l-114 -1l33 135l123 1zM483 49c-266 -113 -352 -57 -310 97l71 261l-167 -14l-7 56l208 49h91l-87 -333c-22 -87 -6 -101 191 -60z" />
    <glyph glyph-name="Idotaccent" unicode="&#x130;" 
d="M409 698l-116 -1l33 135l126 1zM295 88h144l-21 -88h-390l17 88h139l86 444h-141l17 88h390l-16 -88h-139z" />
    <glyph glyph-name="dotlessi" unicode="&#x131;" 
d="M483 49c-266 -113 -352 -57 -310 97l71 261l-167 -14l-7 56l208 49h91l-87 -333c-22 -87 -6 -101 191 -60z" />
    <glyph glyph-name="Igrave" unicode="&#xcc;" 
d="M503 721l-24 -44c-70 28 -183 90 -251 138l66 85c59 -59 148 -136 209 -179zM295 88h144l-21 -88h-390l17 88h139l86 444h-141l17 88h390l-16 -88h-139z" />
    <glyph glyph-name="igrave" unicode="&#xec;" 
d="M480 599l-24 -44c-70 28 -183 90 -251 138l66 85c59 -59 148 -136 209 -179zM483 49c-266 -113 -352 -57 -310 97l71 261l-167 -14l-7 56l208 49h91l-87 -333c-22 -87 -6 -101 191 -60z" />
    <glyph glyph-name="Imacron" unicode="&#x12a;" 
d="M554 811l-17 -89h-346l18 89h345zM295 88h144l-21 -88h-390l17 88h139l86 444h-141l17 88h390l-16 -88h-139z" />
    <glyph glyph-name="imacron" unicode="&#x12b;" 
d="M531 689l-17 -89h-346l18 89h345zM483 49c-266 -113 -352 -57 -310 97l71 261l-167 -14l-7 56l208 49h91l-87 -333c-22 -87 -6 -101 191 -60z" />
    <glyph glyph-name="Iogonek" unicode="&#x12e;" 
d="M318 -168c-161 -79 -246 -36 -246 32c0 43 31 91 104 136h-148l17 88h139l86 444h-141l17 88h390l-16 -88h-139l-86 -444h144l-21 -88h-131c-84 -36 -117 -74 -117 -106c0 -31 39 -46 137 -13z" />
    <glyph glyph-name="iogonek" unicode="&#x12f;" 
d="M391 579l-114 -5l32 136l124 6zM411 -168c-161 -79 -246 -36 -246 31c0 41 29 84 98 126c-93 0 -117 58 -90 157l71 261l-167 -14l-7 56l208 49h91l-87 -333c-22 -87 -6 -101 191 -60l10 -56c-167 -70 -220 -112 -220 -155c0 -31 38 -46 136 -13z" />
    <glyph glyph-name="Kcommaaccent" unicode="&#x136;" 
d="M373 -7l-152 317l252 310h119l-252 -311l150 -302zM157 620h110l-120 -620h-111zM145 -268c35 64 43 133 35 192l135 2c-9 -78 -54 -157 -126 -213z" />
    <glyph glyph-name="kcommaaccent" unicode="&#x137;" 
d="M381 -7l-157 203c145 83 187 142 187 180c0 24 -16 37 -42 37c-45 0 -101 -37 -162 -100l-61 -313h-105l135 697l107 8l-59 -304c72 73 144 110 207 110c61 0 96 -35 96 -88c0 -64 -52 -139 -183 -221l158 -195zM147 -268c35 64 43 133 35 192l135 2
c-9 -78 -54 -157 -126 -213z" />
    <glyph glyph-name="Lacute" unicode="&#x139;" 
d="M252 728c64 37 166 111 227 168l70 -84c-72 -51 -200 -105 -277 -131zM449 0h-396l120 620h112l-101 -525h284z" />
    <glyph glyph-name="lacute" unicode="&#x13a;" 
d="M355 808c64 37 166 111 227 168l70 -84c-72 -51 -200 -105 -277 -131zM475 63c-189 -110 -316 -94 -350 45c-22 -13 -45 -27 -48 -29l-26 44c4 3 40 26 66 43c-1 9 -1 18 -1 27c0 274 170 514 320 514c63 0 102 -40 102 -112c0 -124 -102 -276 -311 -429
c15 -104 89 -109 231 -49zM397 602c-71 0 -166 -160 -173 -367c152 128 215 240 215 314c0 36 -18 53 -42 53z" />
    <glyph glyph-name="Lcaron" unicode="&#x13d;" 
d="M463 697l118 4c-10 -95 -46 -175 -116 -257l-46 18c39 85 46 157 44 235zM449 0h-396l120 620h112l-101 -525h284z" />
    <glyph glyph-name="lcaron" unicode="&#x13e;" 
d="M617 800l118 4c-10 -95 -46 -175 -116 -257l-46 18c39 85 46 157 44 235zM475 63c-189 -110 -316 -94 -350 45c-22 -13 -45 -27 -48 -29l-26 44c4 3 40 26 66 43c-1 9 -1 18 -1 27c0 274 170 514 320 514c63 0 102 -40 102 -112c0 -124 -102 -276 -311 -429
c15 -104 89 -109 231 -49zM397 602c-71 0 -166 -160 -173 -367c152 128 215 240 215 314c0 36 -18 53 -42 53z" />
    <glyph glyph-name="Lcommaaccent" unicode="&#x13b;" 
d="M449 0h-396l120 620h112l-101 -525h284zM135 -261c35 64 43 133 35 192l135 2c-9 -78 -54 -157 -126 -213z" />
    <glyph glyph-name="lcommaaccent" unicode="&#x13c;" 
d="M475 63c-189 -110 -316 -94 -350 45c-22 -13 -45 -27 -48 -29l-26 44c4 3 40 26 66 43c-1 9 -1 18 -1 27c0 274 170 514 320 514c63 0 102 -40 102 -112c0 -124 -102 -276 -311 -429c15 -104 89 -109 231 -49zM397 602c-71 0 -166 -160 -173 -367
c152 128 215 240 215 314c0 36 -18 53 -42 53zM143 -270c35 64 43 133 35 192l135 2c-9 -78 -54 -157 -126 -213z" />
    <glyph glyph-name="Ldot" unicode="&#x13f;" 
d="M449 0h-396l120 620h112l-101 -525h284zM486 261h-111l32 127h110z" />
    <glyph glyph-name="ldot" unicode="&#x140;" 
d="M475 63c-189 -110 -316 -94 -350 45c-22 -13 -45 -27 -48 -29l-26 44c4 3 40 26 66 43c-1 9 -1 18 -1 27c0 274 170 514 320 514c63 0 102 -40 102 -112c0 -124 -102 -276 -311 -429c15 -104 89 -109 231 -49zM397 602c-71 0 -166 -160 -173 -367
c152 128 215 240 215 314c0 36 -18 53 -42 53zM593 255h-103l26 127h104z" />
    <glyph glyph-name="Lslash" unicode="&#x141;" 
d="M466 0h-396l54 279l-67 -31l-3 74l86 40l50 258h112l-39 -201l128 59l3 -74l-147 -68l-46 -241h284z" />
    <glyph glyph-name="lslash" unicode="&#x142;" 
d="M121 716c0 125 234 182 544 101l-34 -83c-252 72 -439 47 -439 -1c0 -16 19 -32 52 -57l-56 -68c-39 31 -67 65 -67 108zM475 63c-189 -110 -316 -94 -350 45c-22 -13 -45 -27 -48 -29l-26 44c4 3 40 26 66 43c-1 9 -1 18 -1 27c0 274 170 514 320 514
c63 0 102 -40 102 -112c0 -124 -102 -276 -311 -429c15 -104 89 -109 231 -49zM397 602c-71 0 -166 -160 -173 -367c152 128 215 240 215 314c0 36 -18 53 -42 53z" />
    <glyph glyph-name="Nacute" unicode="&#x143;" 
d="M237 730c64 37 166 111 227 168l70 -84c-72 -51 -200 -105 -277 -131zM345 0l-127 425h-5l-79 -425h-104l120 618l107 4l118 -422h5l78 420h104l-120 -620h-97z" />
    <glyph glyph-name="nacute" unicode="&#x144;" 
d="M205 619c64 37 166 111 227 168l70 -84c-72 -51 -200 -105 -277 -131zM518 41c-132 -81 -197 -60 -197 14c0 76 60 229 60 304c0 32 -13 50 -43 50c-34 0 -80 -26 -132 -77c-12 -64 -60 -297 -66 -332h-105c46 236 68 348 89 495l105 6c-1 -8 -8 -54 -13 -92
c65 66 130 102 190 102c67 0 89 -45 89 -98c0 -99 -62 -261 -62 -312c0 -23 10 -28 74 -6z" />
    <glyph glyph-name="Ncaron" unicode="&#x147;" 
d="M368 678h-7l-149 149l73 56l98 -105l150 101l48 -54zM345 0l-127 425h-5l-79 -425h-104l120 618l107 4l118 -422h5l78 420h104l-120 -620h-97z" />
    <glyph glyph-name="ncaron" unicode="&#x148;" 
d="M335 567h-7l-149 149l73 56l98 -105l150 101l48 -54zM518 41c-132 -81 -197 -60 -197 14c0 76 60 229 60 304c0 32 -13 50 -43 50c-34 0 -80 -26 -132 -77c-12 -64 -60 -297 -66 -332h-105c46 236 68 348 89 495l105 6c-1 -8 -8 -54 -13 -92c65 66 130 102 190 102
c67 0 89 -45 89 -98c0 -99 -62 -261 -62 -312c0 -23 10 -28 74 -6z" />
    <glyph glyph-name="Ncommaaccent" unicode="&#x145;" 
d="M345 0l-127 425h-5l-79 -425h-104l120 618l107 4l118 -422h5l78 420h104l-120 -620h-97zM120 -261c35 64 43 133 35 192l135 2c-9 -78 -54 -157 -126 -213z" />
    <glyph glyph-name="ncommaaccent" unicode="&#x146;" 
d="M518 41c-132 -81 -197 -60 -197 14c0 76 60 229 60 304c0 32 -13 50 -43 50c-34 0 -80 -26 -132 -77c-12 -64 -60 -297 -66 -332h-105c46 236 68 348 89 495l105 6c-1 -8 -8 -54 -13 -92c65 66 130 102 190 102c67 0 89 -45 89 -98c0 -99 -62 -261 -62 -312
c0 -23 10 -28 74 -6zM119 -272c35 64 43 133 35 192l135 2c-9 -78 -54 -157 -126 -213z" />
    <glyph glyph-name="Ntilde" unicode="&#xd1;" 
d="M466 774c21 0 49 33 84 86l52 -30c-49 -82 -104 -138 -157 -138c-66 0 -100 93 -136 93c-22 0 -49 -32 -83 -85l-53 30c48 82 104 136 157 136c66 0 99 -92 136 -92zM345 0l-127 425h-5l-79 -425h-104l120 618l107 4l118 -422h5l78 420h104l-120 -620h-97z" />
    <glyph glyph-name="ntilde" unicode="&#xf1;" 
d="M433 663c21 0 49 33 84 86l52 -30c-49 -82 -104 -138 -157 -138c-66 0 -100 93 -136 93c-22 0 -49 -32 -83 -85l-53 30c48 82 104 136 157 136c66 0 99 -92 136 -92zM518 41c-132 -81 -197 -60 -197 14c0 76 60 229 60 304c0 32 -13 50 -43 50c-34 0 -80 -26 -132 -77
c-12 -64 -60 -297 -66 -332h-105c46 236 68 348 89 495l105 6c-1 -8 -8 -54 -13 -92c65 66 130 102 190 102c67 0 89 -45 89 -98c0 -99 -62 -261 -62 -312c0 -23 10 -28 74 -6z" />
    <glyph glyph-name="Oacute" unicode="&#xd3;" 
d="M238 742c64 37 166 111 227 168l70 -84c-72 -51 -200 -105 -277 -131zM346 632c111 0 191 -72 191 -235c0 -212 -122 -410 -295 -410c-110 0 -190 72 -190 235c0 212 122 410 294 410zM255 83c99 0 166 158 166 310c0 99 -35 144 -88 144c-98 0 -165 -159 -165 -310
c0 -100 34 -144 87 -144z" />
    <glyph glyph-name="oacute" unicode="&#xf3;" 
d="M207 620c64 37 166 111 227 168l70 -84c-72 -51 -200 -105 -277 -131zM46 192c0 172 115 320 270 320c115 0 189 -76 189 -205c0 -174 -115 -320 -270 -320c-116 0 -189 75 -189 205zM397 293c0 83 -36 130 -96 130c-87 0 -147 -105 -147 -217c0 -83 36 -130 96 -130
c87 0 147 104 147 217z" />
    <glyph glyph-name="Obreve" unicode="&#x14e;" 
d="M533 884l61 -37c-72 -93 -149 -147 -224 -147c-71 0 -130 49 -168 147l80 43c32 -74 63 -106 111 -106c46 0 87 37 140 100zM346 632c111 0 191 -72 191 -235c0 -212 -122 -410 -295 -410c-110 0 -190 72 -190 235c0 212 122 410 294 410zM255 83c99 0 166 158 166 310
c0 99 -35 144 -88 144c-98 0 -165 -159 -165 -310c0 -100 34 -144 87 -144z" />
    <glyph glyph-name="obreve" unicode="&#x14f;" 
d="M503 762l61 -37c-72 -93 -149 -147 -224 -147c-71 0 -130 49 -168 147l80 43c32 -74 63 -106 111 -106c46 0 87 37 140 100zM46 192c0 172 115 320 270 320c115 0 189 -76 189 -205c0 -174 -115 -320 -270 -320c-116 0 -189 75 -189 205zM397 293c0 83 -36 130 -96 130
c-87 0 -147 -105 -147 -217c0 -83 36 -130 96 -130c87 0 147 104 147 217z" />
    <glyph glyph-name="Ocircumflex" unicode="&#xd4;" 
d="M491 693l-98 106l-150 -102l-48 55l214 146h6l149 -149zM346 632c111 0 191 -72 191 -235c0 -212 -122 -410 -295 -410c-110 0 -190 72 -190 235c0 212 122 410 294 410zM255 83c99 0 166 158 166 310c0 99 -35 144 -88 144c-98 0 -165 -159 -165 -310
c0 -100 34 -144 87 -144z" />
    <glyph glyph-name="ocircumflex" unicode="&#xf4;" 
d="M461 571l-98 106l-150 -102l-48 55l214 146h6l149 -149zM46 192c0 172 115 320 270 320c115 0 189 -76 189 -205c0 -174 -115 -320 -270 -320c-116 0 -189 75 -189 205zM397 293c0 83 -36 130 -96 130c-87 0 -147 -105 -147 -217c0 -83 36 -130 96 -130
c87 0 147 104 147 217z" />
    <glyph glyph-name="Odieresis" unicode="&#xd6;" 
d="M530 713l-113 -1l33 134l123 3zM311 711l-114 -1l33 135l123 1zM346 632c111 0 191 -72 191 -235c0 -212 -122 -410 -295 -410c-110 0 -190 72 -190 235c0 212 122 410 294 410zM255 83c99 0 166 158 166 310c0 99 -35 144 -88 144c-98 0 -165 -159 -165 -310
c0 -100 34 -144 87 -144z" />
    <glyph glyph-name="odieresis" unicode="&#xf6;" 
d="M500 591l-113 -1l33 134l123 3zM281 589l-114 -1l33 135l123 1zM46 192c0 172 115 320 270 320c115 0 189 -76 189 -205c0 -174 -115 -320 -270 -320c-116 0 -189 75 -189 205zM397 293c0 83 -36 130 -96 130c-87 0 -147 -105 -147 -217c0 -83 36 -130 96 -130
c87 0 147 104 147 217z" />
    <glyph glyph-name="Ograve" unicode="&#xd2;" 
d="M516 735l-24 -44c-70 28 -183 90 -251 138l66 85c59 -59 148 -136 209 -179zM346 632c111 0 191 -72 191 -235c0 -212 -122 -410 -295 -410c-110 0 -190 72 -190 235c0 212 122 410 294 410zM255 83c99 0 166 158 166 310c0 99 -35 144 -88 144
c-98 0 -165 -159 -165 -310c0 -100 34 -144 87 -144z" />
    <glyph glyph-name="ograve" unicode="&#xf2;" 
d="M485 613l-24 -44c-70 28 -183 90 -251 138l66 85c59 -59 148 -136 209 -179zM46 192c0 172 115 320 270 320c115 0 189 -76 189 -205c0 -174 -115 -320 -270 -320c-116 0 -189 75 -189 205zM397 293c0 83 -36 130 -96 130c-87 0 -147 -105 -147 -217
c0 -83 36 -130 96 -130c87 0 147 104 147 217z" />
    <glyph glyph-name="Ohungarumlaut" unicode="&#x150;" 
d="M254 698l-46 36c45 55 102 140 134 197l99 -54c-45 -53 -123 -130 -187 -179zM468 697l-48 36c46 55 98 133 130 190l102 -47c-44 -55 -120 -130 -184 -179zM346 632c111 0 191 -72 191 -235c0 -212 -122 -410 -295 -410c-110 0 -190 72 -190 235c0 212 122 410 294 410z
M255 83c99 0 166 158 166 310c0 99 -35 144 -88 144c-98 0 -165 -159 -165 -310c0 -100 34 -144 87 -144z" />
    <glyph glyph-name="ohungarumlaut" unicode="&#x151;" 
d="M224 576l-46 36c45 55 102 140 134 197l99 -54c-45 -53 -123 -130 -187 -179zM438 575l-48 36c46 55 98 133 130 190l102 -47c-44 -55 -120 -130 -184 -179zM46 192c0 172 115 320 270 320c115 0 189 -76 189 -205c0 -174 -115 -320 -270 -320c-116 0 -189 75 -189 205z
M397 293c0 83 -36 130 -96 130c-87 0 -147 -105 -147 -217c0 -83 36 -130 96 -130c87 0 147 104 147 217z" />
    <glyph glyph-name="Omacron" unicode="&#x14c;" 
d="M567 825l-17 -89h-346l18 89h345zM346 632c111 0 191 -72 191 -235c0 -212 -122 -410 -295 -410c-110 0 -190 72 -190 235c0 212 122 410 294 410zM255 83c99 0 166 158 166 310c0 99 -35 144 -88 144c-98 0 -165 -159 -165 -310c0 -100 34 -144 87 -144z" />
    <glyph glyph-name="omacron" unicode="&#x14d;" 
d="M537 703l-17 -89h-346l18 89h345zM46 192c0 172 115 320 270 320c115 0 189 -76 189 -205c0 -174 -115 -320 -270 -320c-116 0 -189 75 -189 205zM397 293c0 83 -36 130 -96 130c-87 0 -147 -105 -147 -217c0 -83 36 -130 96 -130c87 0 147 104 147 217z" />
    <glyph glyph-name="Oslash" unicode="&#xd8;" 
d="M169 230c0 -14 1 -27 2 -38l225 310c-16 26 -39 38 -67 38c-97 0 -160 -153 -160 -310zM260 80c96 0 160 153 160 310c0 15 -1 30 -2 42l-227 -311c15 -28 39 -41 69 -41zM246 -14c-45 0 -84 12 -115 37l-49 -67l-63 41l63 87c-18 38 -28 87 -28 147
c0 212 121 403 289 403c44 0 83 -12 114 -36l48 66l63 -41l-63 -86c19 -38 29 -87 29 -148c0 -212 -120 -403 -288 -403z" />
    <glyph glyph-name="oslash" unicode="&#xf8;" 
d="M153 205c0 -17 1 -32 4 -46l211 236c-16 20 -39 30 -67 30c-88 0 -148 -106 -148 -220zM250 74c88 0 148 105 148 220c0 15 -1 29 -4 41l-209 -234c16 -18 38 -27 65 -27zM235 -13c-46 0 -85 12 -116 34l-55 -60l-57 43l65 72c-17 31 -26 70 -26 116
c0 172 115 320 270 320c47 0 87 -13 118 -37l54 61l59 -43l-66 -74c15 -31 24 -68 24 -112c0 -174 -115 -320 -270 -320z" />
    <glyph glyph-name="Oslashacute" unicode="&#x1fe;" 
d="M238 742c64 37 166 111 227 168l70 -84c-72 -51 -200 -105 -277 -131zM169 230c0 -14 1 -27 2 -38l225 310c-16 26 -39 38 -67 38c-97 0 -160 -153 -160 -310zM260 80c96 0 160 153 160 310c0 15 -1 30 -2 42l-227 -311c15 -28 39 -41 69 -41zM246 -14
c-45 0 -84 12 -115 37l-49 -67l-63 41l63 87c-18 38 -28 87 -28 147c0 212 121 403 289 403c44 0 83 -12 114 -36l48 66l63 -41l-63 -86c19 -38 29 -87 29 -148c0 -212 -120 -403 -288 -403z" />
    <glyph glyph-name="oslashacute" unicode="&#x1ff;" 
d="M207 620c64 37 166 111 227 168l70 -84c-72 -51 -200 -105 -277 -131zM153 205c0 -17 1 -32 4 -46l211 236c-16 20 -39 30 -67 30c-88 0 -148 -106 -148 -220zM250 74c88 0 148 105 148 220c0 15 -1 29 -4 41l-209 -234c16 -18 38 -27 65 -27zM235 -13
c-46 0 -85 12 -116 34l-55 -60l-57 43l65 72c-17 31 -26 70 -26 116c0 172 115 320 270 320c47 0 87 -13 118 -37l54 61l59 -43l-66 -74c15 -31 24 -68 24 -112c0 -174 -115 -320 -270 -320z" />
    <glyph glyph-name="Otilde" unicode="&#xd5;" 
d="M466 786c21 0 49 33 84 86l52 -30c-49 -82 -104 -138 -157 -138c-66 0 -100 93 -136 93c-22 0 -49 -32 -83 -85l-53 30c48 82 104 136 157 136c66 0 99 -92 136 -92zM346 632c111 0 191 -72 191 -235c0 -212 -122 -410 -295 -410c-110 0 -190 72 -190 235
c0 212 122 410 294 410zM255 83c99 0 166 158 166 310c0 99 -35 144 -88 144c-98 0 -165 -159 -165 -310c0 -100 34 -144 87 -144z" />
    <glyph glyph-name="otilde" unicode="&#xf5;" 
d="M436 664c21 0 49 33 84 86l52 -30c-49 -82 -104 -138 -157 -138c-66 0 -100 93 -136 93c-22 0 -49 -32 -83 -85l-53 30c48 82 104 136 157 136c66 0 99 -92 136 -92zM46 192c0 172 115 320 270 320c115 0 189 -76 189 -205c0 -174 -115 -320 -270 -320
c-116 0 -189 75 -189 205zM397 293c0 83 -36 130 -96 130c-87 0 -147 -105 -147 -217c0 -83 36 -130 96 -130c87 0 147 104 147 217z" />
    <glyph glyph-name="Racute" unicode="&#x154;" 
d="M221 735c64 37 166 111 227 168l70 -84c-72 -51 -200 -105 -277 -131zM372 -8l-133 287v1c128 59 175 110 175 173c0 61 -55 91 -165 78l-102 -531h-110l119 617c277 38 369 -39 369 -142c0 -89 -64 -157 -162 -211l129 -256z" />
    <glyph glyph-name="racute" unicode="&#x155;" 
d="M253 625c64 37 166 111 227 168l70 -84c-72 -51 -200 -105 -277 -131zM507 32c-235 -105 -304 -26 -139 349c-43 -12 -87 -20 -127 -22c-37 -67 -96 -143 -166 -213l-39 40c58 68 101 123 130 178c-35 8 -58 26 -58 56c0 51 60 112 120 112c31 0 51 -20 51 -55
c0 -9 -1 -19 -3 -29c61 10 129 30 181 56l51 -25c-170 -410 -146 -431 -8 -392z" />
    <glyph glyph-name="Rcaron" unicode="&#x158;" 
d="M351 683h-7l-149 149l73 56l98 -105l150 101l48 -54zM372 -8l-133 287v1c128 59 175 110 175 173c0 61 -55 91 -165 78l-102 -531h-110l119 617c277 38 369 -39 369 -142c0 -89 -64 -157 -162 -211l129 -256z" />
    <glyph glyph-name="rcaron" unicode="&#x159;" 
d="M362 573h-7l-149 149l73 56l98 -105l150 101l48 -54zM507 32c-235 -105 -304 -26 -139 349c-43 -12 -87 -20 -127 -22c-37 -67 -96 -143 -166 -213l-39 40c58 68 101 123 130 178c-35 8 -58 26 -58 56c0 51 60 112 120 112c31 0 51 -20 51 -55c0 -9 -1 -19 -3 -29
c61 10 129 30 181 56l51 -25c-170 -410 -146 -431 -8 -392z" />
    <glyph glyph-name="Rcommaaccent" unicode="&#x156;" 
d="M372 -8l-133 287v1c128 59 175 110 175 173c0 61 -55 91 -165 78l-102 -531h-110l119 617c277 38 369 -39 369 -142c0 -89 -64 -157 -162 -211l129 -256zM129 -269c35 64 43 133 35 192l135 2c-9 -78 -54 -157 -126 -213z" />
    <glyph glyph-name="rcommaaccent" unicode="&#x157;" 
d="M507 32c-235 -105 -304 -26 -139 349c-43 -12 -87 -20 -127 -22c-37 -67 -96 -143 -166 -213l-39 40c58 68 101 123 130 178c-35 8 -58 26 -58 56c0 51 60 112 120 112c31 0 51 -20 51 -55c0 -9 -1 -19 -3 -29c61 10 129 30 181 56l51 -25c-170 -410 -146 -431 -8 -392z
M98 -255c35 64 43 133 35 192l135 2c-9 -78 -54 -157 -126 -213z" />
    <glyph glyph-name="Sacute" unicode="&#x15a;" 
d="M245 740c64 37 166 111 227 168l70 -84c-72 -51 -200 -105 -277 -131zM522 455l-97 -19c-16 74 -50 103 -107 103c-55 0 -95 -37 -95 -83c0 -104 247 -166 247 -304c0 -103 -125 -205 -443 -140l22 108c228 -62 306 -26 306 26c0 89 -244 152 -244 297
c0 99 93 189 229 189c110 0 163 -63 182 -177z" />
    <glyph glyph-name="sacute" unicode="&#x15b;" 
d="M218 642c64 37 166 111 227 168l70 -84c-72 -51 -200 -105 -277 -131zM474 144c0 -84 -79 -161 -359 -152l2 97c197 -14 250 7 250 49c0 45 -64 99 -110 162c-44 -32 -98 -67 -166 -103l-24 49c72 47 122 82 156 113c-8 18 -12 36 -12 55c0 68 66 120 127 120
c70 0 94 -64 3 -161c38 -68 133 -147 133 -229z" />
    <glyph glyph-name="Scaron" unicode="&#x160;" 
d="M376 688h-7l-149 149l73 56l98 -105l150 101l48 -54zM522 455l-97 -19c-16 74 -50 103 -107 103c-55 0 -95 -37 -95 -83c0 -104 247 -166 247 -304c0 -103 -125 -205 -443 -140l22 108c228 -62 306 -26 306 26c0 89 -244 152 -244 297c0 99 93 189 229 189
c110 0 163 -63 182 -177z" />
    <glyph glyph-name="scaron" unicode="&#x161;" 
d="M348 590h-7l-149 149l73 56l98 -105l150 101l48 -54zM474 144c0 -84 -79 -161 -359 -152l2 97c197 -14 250 7 250 49c0 45 -64 99 -110 162c-44 -32 -98 -67 -166 -103l-24 49c72 47 122 82 156 113c-8 18 -12 36 -12 55c0 68 66 120 127 120c70 0 94 -64 3 -161
c38 -68 133 -147 133 -229z" />
    <glyph glyph-name="Scedilla" unicode="&#x15e;" 
d="M245 -188c5 88 -11 122 -40 122s-57 -36 -87 -97l-55 18c29 71 61 116 97 138c-40 3 -84 9 -133 19l22 108c228 -62 306 -26 306 26c0 89 -244 152 -244 297c0 99 93 189 229 189c110 0 163 -63 182 -177l-97 -19c-16 74 -50 103 -107 103c-55 0 -95 -37 -95 -83
c0 -104 247 -166 247 -304c0 -70 -58 -140 -197 -157c43 -25 71 -85 65 -181z" />
    <glyph glyph-name="scedilla" unicode="&#x15f;" 
d="M273 -187c5 88 -11 122 -40 122s-57 -36 -87 -97l-55 18c28 68 59 112 93 136c-21 -1 -44 -1 -69 0l2 97c197 -14 250 7 250 49c0 45 -64 99 -110 162c-44 -32 -98 -67 -166 -103l-24 49c72 47 122 82 156 113c-8 18 -12 36 -12 55c0 68 66 120 127 120
c70 0 94 -64 3 -161c38 -68 133 -147 133 -229c0 -62 -44 -121 -181 -143c47 -23 79 -84 73 -186z" />
    <glyph glyph-name="Scommaaccent" unicode="&#x218;" 
d="M522 455l-97 -19c-16 74 -50 103 -107 103c-55 0 -95 -37 -95 -83c0 -104 247 -166 247 -304c0 -103 -125 -205 -443 -140l22 108c228 -62 306 -26 306 26c0 89 -244 152 -244 297c0 99 93 189 229 189c110 0 163 -63 182 -177zM109 -270c35 64 43 133 35 192l135 2
c-9 -78 -54 -157 -126 -213z" />
    <glyph glyph-name="scommaaccent" unicode="&#x219;" 
d="M474 144c0 -84 -79 -161 -359 -152l2 97c197 -14 250 7 250 49c0 45 -64 99 -110 162c-44 -32 -98 -67 -166 -103l-24 49c72 47 122 82 156 113c-8 18 -12 36 -12 55c0 68 66 120 127 120c70 0 94 -64 3 -161c38 -68 133 -147 133 -229zM108 -271c35 64 43 133 35 192
l135 2c-9 -78 -54 -157 -126 -213z" />
    <glyph glyph-name="Tcaron" unicode="&#x164;" 
d="M358 676h-7l-149 149l73 56l98 -105l150 101l48 -54zM385 525l-102 -525h-112l101 525h-178l19 95h469l-19 -95h-178z" />
    <glyph glyph-name="tcaron" unicode="&#x165;" 
d="M445 833l118 4c-10 -95 -46 -175 -116 -257l-46 18c39 85 46 157 44 235zM464 52c-258 -134 -357 -47 -320 119l54 241h-92l21 83h60l86 139l81 6l-32 -145h180l-16 -83h-183l-52 -235c-22 -95 8 -124 206 -71z" />
    <glyph glyph-name="Tcommaaccent" unicode="&#x162;" 
d="M385 525l-102 -525h-112l101 525h-178l19 95h469l-19 -95h-178zM111 -261c35 64 43 133 35 192l135 2c-9 -78 -54 -157 -126 -213z" />
    <glyph glyph-name="tcommaaccent" unicode="&#x163;" 
d="M464 52c-258 -134 -357 -47 -320 119l54 241h-92l21 83h60l86 139l81 6l-32 -145h180l-16 -83h-183l-52 -235c-22 -95 8 -124 206 -71zM121 -274c35 64 43 133 35 192l135 2c-9 -78 -54 -157 -126 -213z" />
    <glyph glyph-name="Uacute" unicode="&#xda;" 
d="M235 728c64 37 166 111 227 168l70 -84c-72 -51 -200 -105 -277 -131zM182 230c-22 -111 12 -148 74 -148c59 0 97 37 114 123l80 415h111l-80 -413c-31 -157 -116 -221 -239 -221c-131 0 -205 73 -170 250l75 384h110z" />
    <glyph glyph-name="uacute" unicode="&#xfa;" 
d="M220 611c64 37 166 111 227 168l70 -84c-72 -51 -200 -105 -277 -131zM522 41c-151 -90 -202 -57 -191 48c-60 -67 -116 -102 -172 -102c-76 0 -112 61 -85 184l36 167l-49 32l84 126l105 7l-69 -318c-15 -67 -2 -96 36 -96c36 0 81 29 129 86l63 323h104l-71 -364
c-11 -55 -7 -66 70 -39z" />
    <glyph glyph-name="Ubreve" unicode="&#x16c;" 
d="M530 870l61 -37c-72 -93 -149 -147 -224 -147c-71 0 -130 49 -168 147l80 43c32 -74 63 -106 111 -106c46 0 87 37 140 100zM182 230c-22 -111 12 -148 74 -148c59 0 97 37 114 123l80 415h111l-80 -413c-31 -157 -116 -221 -239 -221c-131 0 -205 73 -170 250l75 384
h110z" />
    <glyph glyph-name="ubreve" unicode="&#x16d;" 
d="M516 753l61 -37c-72 -93 -149 -147 -224 -147c-71 0 -130 49 -168 147l80 43c32 -74 63 -106 111 -106c46 0 87 37 140 100zM522 41c-151 -90 -202 -57 -191 48c-60 -67 -116 -102 -172 -102c-76 0 -112 61 -85 184l36 167l-49 32l84 126l105 7l-69 -318
c-15 -67 -2 -96 36 -96c36 0 81 29 129 86l63 323h104l-71 -364c-11 -55 -7 -66 70 -39z" />
    <glyph glyph-name="Ucircumflex" unicode="&#xdb;" 
d="M488 679l-98 106l-150 -102l-48 55l214 146h6l149 -149zM182 230c-22 -111 12 -148 74 -148c59 0 97 37 114 123l80 415h111l-80 -413c-31 -157 -116 -221 -239 -221c-131 0 -205 73 -170 250l75 384h110z" />
    <glyph glyph-name="ucircumflex" unicode="&#xfb;" 
d="M474 562l-98 106l-150 -102l-48 55l214 146h6l149 -149zM522 41c-151 -90 -202 -57 -191 48c-60 -67 -116 -102 -172 -102c-76 0 -112 61 -85 184l36 167l-49 32l84 126l105 7l-69 -318c-15 -67 -2 -96 36 -96c36 0 81 29 129 86l63 323h104l-71 -364
c-11 -55 -7 -66 70 -39z" />
    <glyph glyph-name="Udieresis" unicode="&#xdc;" 
d="M527 699l-113 -1l33 134l123 3zM308 697l-114 -1l33 135l123 1zM182 230c-22 -111 12 -148 74 -148c59 0 97 37 114 123l80 415h111l-80 -413c-31 -157 -116 -221 -239 -221c-131 0 -205 73 -170 250l75 384h110z" />
    <glyph glyph-name="udieresis" unicode="&#xfc;" 
d="M513 582l-113 -1l33 134l123 3zM294 580l-114 -1l33 135l123 1zM522 41c-151 -90 -202 -57 -191 48c-60 -67 -116 -102 -172 -102c-76 0 -112 61 -85 184l36 167l-49 32l84 126l105 7l-69 -318c-15 -67 -2 -96 36 -96c36 0 81 29 129 86l63 323h104l-71 -364
c-11 -55 -7 -66 70 -39z" />
    <glyph glyph-name="Ugrave" unicode="&#xd9;" 
d="M513 721l-24 -44c-70 28 -183 90 -251 138l66 85c59 -59 148 -136 209 -179zM182 230c-22 -111 12 -148 74 -148c59 0 97 37 114 123l80 415h111l-80 -413c-31 -157 -116 -221 -239 -221c-131 0 -205 73 -170 250l75 384h110z" />
    <glyph glyph-name="ugrave" unicode="&#xf9;" 
d="M498 604l-24 -44c-70 28 -183 90 -251 138l66 85c59 -59 148 -136 209 -179zM522 41c-151 -90 -202 -57 -191 48c-60 -67 -116 -102 -172 -102c-76 0 -112 61 -85 184l36 167l-49 32l84 126l105 7l-69 -318c-15 -67 -2 -96 36 -96c36 0 81 29 129 86l63 323h104l-71 -364
c-11 -55 -7 -66 70 -39z" />
    <glyph glyph-name="Uhungarumlaut" unicode="&#x170;" 
d="M251 684l-46 36c45 55 102 140 134 197l99 -54c-45 -53 -123 -130 -187 -179zM465 683l-48 36c46 55 98 133 130 190l102 -47c-44 -55 -120 -130 -184 -179zM182 230c-22 -111 12 -148 74 -148c59 0 97 37 114 123l80 415h111l-80 -413c-31 -157 -116 -221 -239 -221
c-131 0 -205 73 -170 250l75 384h110z" />
    <glyph glyph-name="uhungarumlaut" unicode="&#x171;" 
d="M237 567l-46 36c45 55 102 140 134 197l99 -54c-45 -53 -123 -130 -187 -179zM451 566l-48 36c46 55 98 133 130 190l102 -47c-44 -55 -120 -130 -184 -179zM522 41c-151 -90 -202 -57 -191 48c-60 -67 -116 -102 -172 -102c-76 0 -112 61 -85 184l36 167l-49 32l84 126
l105 7l-69 -318c-15 -67 -2 -96 36 -96c36 0 81 29 129 86l63 323h104l-71 -364c-11 -55 -7 -66 70 -39z" />
    <glyph glyph-name="Umacron" unicode="&#x16a;" 
d="M564 811l-17 -89h-346l18 89h345zM182 230c-22 -111 12 -148 74 -148c59 0 97 37 114 123l80 415h111l-80 -413c-31 -157 -116 -221 -239 -221c-131 0 -205 73 -170 250l75 384h110z" />
    <glyph glyph-name="umacron" unicode="&#x16b;" 
d="M550 694l-17 -89h-346l18 89h345zM522 41c-151 -90 -202 -57 -191 48c-60 -67 -116 -102 -172 -102c-76 0 -112 61 -85 184l36 167l-49 32l84 126l105 7l-69 -318c-15 -67 -2 -96 36 -96c36 0 81 29 129 86l63 323h104l-71 -364c-11 -55 -7 -66 70 -39z" />
    <glyph glyph-name="Uogonek" unicode="&#x172;" 
d="M351 -168c-160 -79 -245 -36 -245 31c0 40 35 83 110 124c-115 10 -177 84 -144 249l75 384h110l-75 -390c-22 -111 12 -148 74 -148c59 0 97 37 114 123l80 415h111l-80 -413c-20 -100 -61 -162 -123 -194c-114 -58 -155 -86 -155 -119c0 -31 39 -46 137 -13z" />
    <glyph glyph-name="uogonek" unicode="&#x173;" 
d="M479 -168c-161 -79 -246 -36 -246 32c0 46 37 97 128 145c-24 11 -34 39 -30 81c-62 -68 -121 -103 -172 -103c-76 0 -112 61 -85 184l36 167l-49 32l84 126l105 7l-69 -318c-15 -67 -2 -96 36 -96c36 0 81 29 129 86l63 323h104l-71 -364c-11 -55 -7 -66 70 -39l10 -54
c-156 -66 -191 -112 -191 -147c0 -31 39 -46 137 -13z" />
    <glyph glyph-name="Uring" unicode="&#x16e;" 
d="M395 887c75 0 124 -45 124 -99c0 -62 -60 -115 -143 -115c-76 0 -125 45 -125 100c0 62 60 114 144 114zM182 230c-22 -111 12 -148 74 -148c59 0 97 37 114 123l80 415h111l-80 -413c-31 -157 -116 -221 -239 -221c-131 0 -205 73 -170 250l75 384h110z" />
    <glyph glyph-name="uring" unicode="&#x16f;" 
d="M380 770c75 0 124 -45 124 -99c0 -62 -60 -115 -143 -115c-76 0 -125 45 -125 100c0 62 60 114 144 114zM522 41c-151 -90 -202 -57 -191 48c-60 -67 -116 -102 -172 -102c-76 0 -112 61 -85 184l36 167l-49 32l84 126l105 7l-69 -318c-15 -67 -2 -96 36 -96
c36 0 81 29 129 86l63 323h104l-71 -364c-11 -55 -7 -66 70 -39z" />
    <glyph glyph-name="Wacute" unicode="&#x1e82;" 
d="M237 728c64 37 166 111 227 168l70 -84c-72 -51 -200 -105 -277 -131zM311 0l-17 296l-132 -296h-107c4 118 28 355 67 620h110c-10 -65 -68 -438 -70 -470h4l126 284h62l15 -284h4c10 32 96 405 111 470h108c-65 -267 -132 -503 -171 -620h-110z" />
    <glyph glyph-name="wacute" unicode="&#x1e83;" 
d="M214 605c64 37 166 111 227 168l70 -84c-72 -51 -200 -105 -277 -131zM309 0l-32 236l-123 -236h-100c4 108 23 309 50 497h106c-24 -132 -39 -235 -60 -370h3l121 240h65l28 -241h5c31 140 54 241 80 371h111c-41 -158 -85 -298 -153 -497h-101z" />
    <glyph glyph-name="Wcircumflex" unicode="&#x174;" 
d="M490 679l-98 106l-150 -102l-48 55l214 146h6l149 -149zM311 0l-17 296l-132 -296h-107c4 118 28 355 67 620h110c-10 -65 -68 -438 -70 -470h4l126 284h62l15 -284h4c10 32 96 405 111 470h108c-65 -267 -132 -503 -171 -620h-110z" />
    <glyph glyph-name="wcircumflex" unicode="&#x175;" 
d="M467 556l-98 106l-150 -102l-48 55l214 146h6l149 -149zM309 0l-32 236l-123 -236h-100c4 108 23 309 50 497h106c-24 -132 -39 -235 -60 -370h3l121 240h65l28 -241h5c31 140 54 241 80 371h111c-41 -158 -85 -298 -153 -497h-101z" />
    <glyph glyph-name="Wdieresis" unicode="&#x1e84;" 
d="M530 699l-113 -1l33 134l123 3zM311 697l-114 -1l33 135l123 1zM311 0l-17 296l-132 -296h-107c4 118 28 355 67 620h110c-10 -65 -68 -438 -70 -470h4l126 284h62l15 -284h4c10 32 96 405 111 470h108c-65 -267 -132 -503 -171 -620h-110z" />
    <glyph glyph-name="wdieresis" unicode="&#x1e85;" 
d="M506 576l-113 -1l33 134l123 3zM287 574l-114 -1l33 135l123 1zM309 0l-32 236l-123 -236h-100c4 108 23 309 50 497h106c-24 -132 -39 -235 -60 -370h3l121 240h65l28 -241h5c31 140 54 241 80 371h111c-41 -158 -85 -298 -153 -497h-101z" />
    <glyph glyph-name="Wgrave" unicode="&#x1e80;" 
d="M515 721l-24 -44c-70 28 -183 90 -251 138l66 85c59 -59 148 -136 209 -179zM311 0l-17 296l-132 -296h-107c4 118 28 355 67 620h110c-10 -65 -68 -438 -70 -470h4l126 284h62l15 -284h4c10 32 96 405 111 470h108c-65 -267 -132 -503 -171 -620h-110z" />
    <glyph glyph-name="wgrave" unicode="&#x1e81;" 
d="M492 598l-24 -44c-70 28 -183 90 -251 138l66 85c59 -59 148 -136 209 -179zM309 0l-32 236l-123 -236h-100c4 108 23 309 50 497h106c-24 -132 -39 -235 -60 -370h3l121 240h65l28 -241h5c31 140 54 241 80 371h111c-41 -158 -85 -298 -153 -497h-101z" />
    <glyph glyph-name="Yacute" unicode="&#xdd;" 
d="M230 730c64 37 166 111 227 168l70 -84c-72 -51 -200 -105 -277 -131zM285 0h-111l40 207l-118 411l115 4l80 -311l193 309h119l-279 -420z" />
    <glyph glyph-name="yacute" unicode="&#xfd;" 
d="M214 616c64 37 166 111 227 168l70 -84c-72 -51 -200 -105 -277 -131zM429 -68c-36 -70 -145 -113 -382 -102l15 103c171 -13 257 -1 278 19c20 20 11 86 7 172c-54 -52 -124 -92 -189 -92c-96 0 -152 92 -14 464l104 4c-112 -316 -86 -373 -33 -373c34 0 83 25 132 72
c6 149 73 309 110 309c28 0 74 -12 74 -33c0 -47 -38 -174 -93 -274v-6c0 -98 21 -203 -9 -263z" />
    <glyph glyph-name="Ycircumflex" unicode="&#x176;" 
d="M484 681l-98 106l-150 -102l-48 55l214 146h6l149 -149zM285 0h-111l40 207l-118 411l115 4l80 -311l193 309h119l-279 -420z" />
    <glyph glyph-name="ycircumflex" unicode="&#x177;" 
d="M467 567l-98 106l-150 -102l-48 55l214 146h6l149 -149zM429 -68c-36 -70 -145 -113 -382 -102l15 103c171 -13 257 -1 278 19c20 20 11 86 7 172c-54 -52 -124 -92 -189 -92c-96 0 -152 92 -14 464l104 4c-112 -316 -86 -373 -33 -373c34 0 83 25 132 72
c6 149 73 309 110 309c28 0 74 -12 74 -33c0 -47 -38 -174 -93 -274v-6c0 -98 21 -203 -9 -263z" />
    <glyph glyph-name="Ydieresis" unicode="&#x178;" 
d="M523 701l-113 -1l33 134l123 3zM304 699l-114 -1l33 135l123 1zM285 0h-111l40 207l-118 411l115 4l80 -311l193 309h119l-279 -420z" />
    <glyph glyph-name="ydieresis" unicode="&#xff;" 
d="M507 587l-113 -1l33 134l123 3zM288 585l-114 -1l33 135l123 1zM429 -68c-36 -70 -145 -113 -382 -102l15 103c171 -13 257 -1 278 19c20 20 11 86 7 172c-54 -52 -124 -92 -189 -92c-96 0 -152 92 -14 464l104 4c-112 -316 -86 -373 -33 -373c34 0 83 25 132 72
c6 149 73 309 110 309c28 0 74 -12 74 -33c0 -47 -38 -174 -93 -274v-6c0 -98 21 -203 -9 -263z" />
    <glyph glyph-name="Ygrave" unicode="&#x1ef2;" 
d="M508 723l-24 -44c-70 28 -183 90 -251 138l66 85c59 -59 148 -136 209 -179zM285 0h-111l40 207l-118 411l115 4l80 -311l193 309h119l-279 -420z" />
    <glyph glyph-name="ygrave" unicode="&#x1ef3;" 
d="M492 609l-24 -44c-70 28 -183 90 -251 138l66 85c59 -59 148 -136 209 -179zM429 -68c-36 -70 -145 -113 -382 -102l15 103c171 -13 257 -1 278 19c20 20 11 86 7 172c-54 -52 -124 -92 -189 -92c-96 0 -152 92 -14 464l104 4c-112 -316 -86 -373 -33 -373
c34 0 83 25 132 72c6 149 73 309 110 309c28 0 74 -12 74 -33c0 -47 -38 -174 -93 -274v-6c0 -98 21 -203 -9 -263z" />
    <glyph glyph-name="Zacute" unicode="&#x179;" 
d="M230 728c64 37 166 111 227 168l70 -84c-72 -51 -200 -105 -277 -131zM442 0h-425l17 94l381 431l-293 -2l19 97h414l-15 -94l-377 -431l297 2z" />
    <glyph glyph-name="zacute" unicode="&#x17a;" 
d="M210 606c64 37 166 111 227 168l70 -84c-72 -51 -200 -105 -277 -131zM430 0h-402l18 90l338 317l-276 -3l25 94h393l-18 -90l-337 -317l285 3z" />
    <glyph glyph-name="Zcaron" unicode="&#x17d;" 
d="M360 676h-7l-149 149l73 56l98 -105l150 101l48 -54zM442 0h-425l17 94l381 431l-293 -2l19 97h414l-15 -94l-377 -431l297 2z" />
    <glyph glyph-name="zcaron" unicode="&#x17e;" 
d="M340 554h-7l-149 149l73 56l98 -105l150 101l48 -54zM430 0h-402l18 90l338 317l-276 -3l25 94h393l-18 -90l-337 -317l285 3z" />
    <glyph glyph-name="Zdotaccent" unicode="&#x17b;" 
d="M414 698l-116 -1l33 135l126 1zM442 0h-425l17 94l381 431l-293 -2l19 97h414l-15 -94l-377 -431l297 2z" />
    <glyph glyph-name="zdotaccent" unicode="&#x17c;" 
d="M394 576l-116 -1l33 135l126 1zM430 0h-402l18 90l338 317l-276 -3l25 94h393l-18 -90l-337 -317l285 3z" />
    <glyph glyph-name="AE" unicode="&#xc6;" 
d="M325 529c-44 -94 -87 -188 -131 -282h86l55 282h-10zM232 0l33 167h-108c-26 -56 -53 -112 -79 -167h-108c101 205 206 414 310 620h322l-18 -91h-155l-35 -179h126l-15 -76h-126l-36 -183h160l-23 -91h-248z" />
    <glyph glyph-name="ae" unicode="&#xe6;" 
d="M522 60c-166 -106 -253 -74 -281 15c-42 -47 -88 -81 -138 -81c-52 0 -82 41 -82 132c0 186 103 378 239 378c37 0 75 -10 110 -30c29 22 62 34 96 34c64 0 101 -44 101 -107c0 -95 -70 -187 -234 -211c-1 -9 -1 -17 -1 -25c0 -86 41 -106 180 -52zM438 421
c-44 0 -82 -83 -98 -173c94 21 128 92 128 134c0 24 -9 39 -30 39zM162 89c23 0 46 22 70 54v2c0 97 27 188 70 255c-23 16 -43 20 -59 20c-62 0 -113 -140 -113 -260c0 -47 10 -71 32 -71z" />
    <glyph glyph-name="AEacute" unicode="&#x1fc;" 
d="M305 728c64 37 166 111 227 168l70 -84c-72 -51 -200 -105 -277 -131zM325 529c-44 -94 -87 -188 -131 -282h86l55 282h-10zM232 0l33 167h-108c-26 -56 -53 -112 -79 -167h-108c101 205 206 414 310 620h322l-18 -91h-155l-35 -179h126l-15 -76h-126l-36 -183h160
l-23 -91h-248z" />
    <glyph glyph-name="aeacute" unicode="&#x1fd;" 
d="M228 613c64 37 166 111 227 168l70 -84c-72 -51 -200 -105 -277 -131zM522 60c-166 -106 -253 -74 -281 15c-42 -47 -88 -81 -138 -81c-52 0 -82 41 -82 132c0 186 103 378 239 378c37 0 75 -10 110 -30c29 22 62 34 96 34c64 0 101 -44 101 -107
c0 -95 -70 -187 -234 -211c-1 -9 -1 -17 -1 -25c0 -86 41 -106 180 -52zM438 421c-44 0 -82 -83 -98 -173c94 21 128 92 128 134c0 24 -9 39 -30 39zM162 89c23 0 46 22 70 54v2c0 97 27 188 70 255c-23 16 -43 20 -59 20c-62 0 -113 -140 -113 -260c0 -47 10 -71 32 -71z
" />
    <glyph glyph-name="OE" unicode="&#x152;" 
d="M154 215c0 -80 29 -124 91 -124l84 438c-132 -5 -175 -218 -175 -314zM500 91l-24 -91h-214c-132 0 -218 52 -218 212c0 158 77 408 349 408h205l-17 -91h-156l-35 -179h127l-15 -76h-126l-35 -183h159z" />
    <glyph glyph-name="oe" unicode="&#x153;" 
d="M269 358c0 42 -12 66 -35 66c-57 0 -109 -183 -109 -278c0 -47 14 -72 38 -72c60 0 106 190 106 284zM445 421c-43 0 -80 -85 -96 -173c87 19 124 82 124 133c0 26 -10 40 -28 40zM526 61c-150 -109 -230 -78 -256 12c-37 -50 -83 -83 -132 -83c-70 0 -114 57 -114 163
c0 168 97 355 224 355c49 0 83 -31 99 -83c36 50 82 83 131 83c56 0 95 -39 95 -110c0 -99 -74 -188 -231 -211c-1 -8 -1 -17 -1 -25c0 -83 42 -103 173 -51z" />
    <glyph glyph-name="Eth" unicode="&#xd0;" 
d="M528 387c0 -227 -141 -432 -494 -386l53 274h-63l15 77h63l51 265c251 41 375 -39 375 -230zM304 275h-107l-36 -188c171 -11 256 130 256 289c0 115 -55 169 -170 158l-35 -182h112z" />
    <glyph glyph-name="eth" unicode="&#xf0;" 
d="M237 -13c-116 0 -190 78 -190 194c0 150 118 280 272 280c16 0 33 -1 51 -4c-12 27 -28 54 -47 81l-140 -40l-18 62l113 32c-21 22 -46 45 -73 68l84 54c35 -30 67 -61 94 -93l113 32l15 -62l-87 -25c53 -77 81 -160 81 -252c0 -195 -114 -327 -268 -327zM257 73
c88 0 143 100 143 229c0 17 -1 34 -3 51c-41 17 -81 24 -105 24c-80 0 -137 -85 -137 -176c0 -78 39 -128 102 -128z" />
    <glyph glyph-name="Thorn" unicode="&#xde;" 
d="M152 0h-110l121 620h111l-17 -86c191 3 270 -72 270 -174c0 -145 -133 -243 -357 -268zM418 341c0 72 -60 114 -180 98l-49 -249c149 -7 229 60 229 151z" />
    <glyph glyph-name="thorn" unicode="&#xfe;" 
d="M253 77c80 0 148 125 148 238c0 66 -26 95 -59 95c-36 0 -89 -32 -132 -73l-47 -243c36 -12 69 -17 90 -17zM112 -168l-105 -8l169 873l106 8l-56 -289c55 52 120 94 172 94c61 0 110 -54 110 -165c0 -180 -120 -357 -307 -357c-18 0 -37 1 -58 4z" />
    <glyph glyph-name="schwa" unicode="&#x259;" 
d="M190 -13c-90 0 -146 48 -146 125c0 115 123 185 349 202c-3 110 -81 131 -312 71l-12 56c282 143 428 44 428 -121c0 -159 -134 -333 -307 -333zM219 75c87 0 151 87 169 179c-150 -11 -242 -49 -242 -119c0 -36 28 -60 73 -60z" />
    <glyph glyph-name="germandbls" unicode="&#xdf;" 
d="M213 -8l11 97c124 -12 172 2 172 46c0 43 -40 102 -137 187c105 112 149 171 149 230c0 37 -20 65 -60 65c-54 0 -96 -50 -116 -154l-90 -463h-107l89 457c30 153 124 248 253 248c97 0 141 -60 141 -127c0 -77 -52 -149 -135 -233c73 -66 122 -132 122 -198
c0 -87 -74 -164 -292 -155z" />
    <glyph glyph-name="zero" unicode="0" 
d="M53 219c0 219 124 413 289 413c107 0 179 -78 179 -230c0 -219 -125 -414 -289 -414c-108 0 -179 78 -179 231zM323 544c-82 0 -146 -123 -161 -254l253 132c-7 81 -40 122 -92 122zM251 76c84 0 147 126 162 258l-254 -131c6 -86 39 -127 92 -127z" />
    <glyph glyph-name="zero.alt" 
d="M53 222c0 216 124 410 289 410c107 0 179 -78 179 -233c0 -216 -125 -411 -289 -411c-108 0 -179 78 -179 234zM157 229c0 -103 36 -150 92 -150c98 0 168 161 168 312c0 102 -36 150 -92 150c-97 0 -168 -162 -168 -312z" />
    <glyph glyph-name="one" unicode="1" 
d="M444 0h-398l18 90h158l73 377l-149 -3l13 77l153 17l15 75l105 9l-107 -551h144z" />
    <glyph glyph-name="two" unicode="2" 
d="M440 0h-401v83c225 150 354 246 354 349c0 73 -64 113 -258 84l15 100c230 37 352 -24 352 -156c0 -131 -114 -231 -315 -367h271z" />
    <glyph glyph-name="three" unicode="3" 
d="M474 177c0 -96 -111 -207 -425 -177l13 101c246 -32 310 14 310 62c0 46 -64 92 -226 134l6 48l250 182h-258l18 93h367l-11 -90l-247 -181c149 -43 203 -105 203 -172z" />
    <glyph glyph-name="four" unicode="4" 
d="M481 122h-59l-24 -122h-98l24 122h-283l4 70c76 133 127 249 183 435l113 -6c-62 -186 -117 -295 -192 -407h193l39 197l99 8l-40 -205h67z" />
    <glyph glyph-name="five" unicode="5" 
d="M476 204c0 -109 -117 -230 -428 -204l12 101c243 -25 315 30 315 87c0 54 -66 98 -255 130l69 302h344l-27 -93h-241l-32 -141c184 -39 243 -109 243 -182z" />
    <glyph glyph-name="six" unicode="6" 
d="M253 -12c-112 0 -191 70 -191 212c0 168 109 350 402 438l24 -93c-191 -52 -275 -141 -308 -226c148 115 306 56 306 -103c0 -136 -105 -228 -233 -228zM273 73c71 0 115 57 115 127c0 102 -104 144 -223 53c-1 -11 -2 -21 -2 -31c0 -112 52 -149 110 -149z" />
    <glyph glyph-name="seven" unicode="7" 
d="M197 -6l-108 11c93 174 204 346 337 514v5h-298l21 96h412l-19 -88c-134 -173 -250 -358 -345 -538z" />
    <glyph glyph-name="eight" unicode="8" 
d="M458 154c0 -90 -95 -166 -228 -166c-115 0 -187 56 -187 137c0 59 31 113 166 202c-45 43 -82 90 -82 143c0 98 122 181 343 156l-30 -102c-163 36 -213 5 -213 -39c0 -32 30 -67 69 -104c56 33 123 70 205 113l32 -62c-74 -40 -135 -73 -184 -102
c56 -53 109 -111 109 -176zM253 72c62 0 108 32 108 75c0 41 -46 84 -98 130c-101 -67 -118 -100 -118 -130c0 -49 49 -75 108 -75z" />
    <glyph glyph-name="nine" unicode="9" 
d="M110 -17l-24 93c192 51 277 142 309 228c-148 -118 -307 -58 -307 101c0 136 106 228 233 228c112 0 191 -70 191 -212c0 -168 -108 -350 -402 -438zM186 421c0 -102 105 -144 224 -53c1 10 2 20 2 30c0 113 -52 150 -110 150c-71 0 -116 -57 -116 -127z" />
    <glyph glyph-name="period" unicode="." 
d="M297 0h-139l26 141h139z" />
    <glyph glyph-name="comma" unicode="," 
d="M109 -136c70 88 84 165 76 278l137 4c-2 -126 -60 -215 -169 -306z" />
    <glyph glyph-name="colon" unicode=":" 
d="M360 321h-138l26 141h139zM294 0h-139l28 141h138z" />
    <glyph glyph-name="colon.alt" 
d="M375 399h-138l27 141h138zM310 78h-139l27 141h139z" />
    <glyph glyph-name="semicolon" unicode=";" 
d="M360 321h-138l26 141h139zM111 -136c69 87 84 163 79 276l137 2c-5 -120 -61 -209 -173 -302z" />
    <glyph glyph-name="ellipsis" unicode="&#x2026;" 
d="M476 0h-112l32 146h113zM293 0h-112l32 146h113zM110 0h-112l32 146h113z" />
    <glyph glyph-name="periodcentered" unicode="&#xb7;" 
d="M343 233h-150l27 139h150z" />
    <glyph glyph-name="ampersand" unicode="&#x26;" 
d="M437 -20c-34 38 -65 77 -92 115c-74 -70 -144 -104 -208 -104c-80 0 -123 50 -123 128c0 92 61 195 194 302c-1 10 -1 19 -1 28c0 114 70 191 132 191c44 0 74 -24 74 -64c0 -47 -36 -112 -99 -172c10 -50 29 -101 58 -154c25 37 51 81 77 132l88 -31
c-40 -68 -79 -126 -118 -174c30 -43 65 -86 107 -132zM170 86c34 0 79 22 131 75c-34 57 -60 113 -75 168c-69 -68 -108 -131 -108 -184c0 -39 20 -59 52 -59z" />
    <glyph glyph-name="exclam" unicode="!" 
d="M307 245h-72c9 46 44 384 52 432h140c-12 -48 -110 -386 -120 -432zM286 0h-135l26 131h135z" />
    <glyph glyph-name="exclamdown" unicode="&#xa1;" 
d="M278 620h135l-26 -131h-135zM257 375h73c-10 -46 -45 -384 -53 -432h-140c12 48 110 386 120 432z" />
    <glyph glyph-name="question" unicode="?" 
d="M135 572l24 107c245 -25 360 -81 360 -178c0 -84 -84 -167 -299 -273l-34 57c156 81 210 126 210 177c0 65 -88 90 -261 110zM242 0h-134l26 129h134z" />
    <glyph glyph-name="questiondown" unicode="&#xbf;" 
d="M332 620h134l-27 -129h-133zM438 48l-24 -107c-244 25 -359 81 -359 178c0 84 84 167 299 273l34 -57c-156 -81 -211 -126 -211 -177c0 -65 88 -90 261 -110z" />
    <glyph glyph-name="quotedblleft" unicode="&#x201c;" 
d="M555 664c-66 -88 -81 -163 -73 -275l-135 -4c4 125 61 215 165 304zM329 664c-70 -88 -85 -164 -77 -277l-135 -3c4 125 61 216 170 305z" />
    <glyph glyph-name="quotedblright" unicode="&#x201d;" 
d="M329 391c70 87 85 164 77 277l135 4c-3 -126 -61 -217 -170 -306zM103 391c66 87 81 163 73 276l135 3c-4 -126 -61 -215 -166 -304z" />
    <glyph glyph-name="quoteleft" unicode="&#x2018;" 
d="M437 664c-70 -88 -84 -164 -75 -277l-138 -3c4 125 61 216 170 305z" />
    <glyph glyph-name="quoteright" unicode="&#x2019;" 
d="M214 391c70 87 84 164 75 277l138 4c-4 -126 -61 -217 -170 -306z" />
    <glyph glyph-name="quotedblbase" unicode="&#x201e;" 
d="M234 -134c70 86 85 163 78 276l135 4c-4 -126 -61 -217 -171 -306zM9 -134c66 86 81 162 72 275l135 3c-3 -125 -61 -215 -165 -304z" />
    <glyph glyph-name="quotesinglbase" unicode="&#x201a;" 
d="M122 -134c70 86 84 163 75 276l138 4c-4 -126 -61 -217 -170 -306z" />
    <glyph glyph-name="guillemotleft" unicode="&#xab;" 
d="M161 -13l-128 209l22 109l203 210l67 -67l-206 -202l130 -203zM404 -13l-127 213l24 108l204 205l66 -69l-207 -197l127 -206z" />
    <glyph glyph-name="guillemotleft.cap" 
d="M173 50l-128 209l22 109l203 210l67 -67l-206 -202l130 -203zM416 50l-127 213l24 108l204 205l66 -69l-207 -197l127 -206z" />
    <glyph glyph-name="guillemotright" unicode="&#xbb;" 
d="M314 -12l-68 66l206 202l-130 203l88 57l129 -210l-23 -108zM66 -11l-66 69l207 196l-126 207l87 55l127 -213l-25 -109z" />
    <glyph glyph-name="guillemotright.cap" 
d="M326 51l-68 66l206 202l-130 203l88 57l129 -210l-23 -108zM78 52l-66 69l207 196l-126 207l87 55l127 -213l-25 -109z" />
    <glyph glyph-name="guilsinglleft" unicode="&#x2039;" 
d="M298 -22l-189 222l27 108l270 211l60 -83l-263 -190l173 -195z" />
    <glyph glyph-name="guilsinglleft.cap" 
d="M310 41l-189 222l27 108l270 211l60 -83l-263 -190l173 -195z" />
    <glyph glyph-name="guilsinglright" unicode="&#x203a;" 
d="M139 -19l-61 84l263 189l-172 195l77 73l190 -221l-27 -109z" />
    <glyph glyph-name="guilsinglright.cap" 
d="M151 44l-61 84l263 189l-172 195l77 73l190 -221l-27 -109z" />
    <glyph glyph-name="hyphen" unicode="-" 
d="M441 344l-17 -93h-302l18 93h301z" />
    <glyph glyph-name="endash" unicode="&#x2013;" 
d="M497 340l-16 -85h-409l16 85h409z" />
    <glyph glyph-name="emdash" unicode="&#x2014;" 
d="M526 340l-16 -85h-446l16 85h446z" />
    <glyph glyph-name="underscore" unicode="_" 
d="M471 -51l-16 -82h-492l15 82h493z" />
    <glyph glyph-name="slash" unicode="/" 
d="M533 726l89 -36l-598 -878l-96 28z" />
    <glyph glyph-name="backslash" unicode="\" 
d="M184 727l271 -891l-90 -29l-270 892z" />
    <glyph glyph-name="bar" unicode="|" 
d="M311 710l102 3l-175 -895h-101z" />
    <glyph glyph-name="parenleft" unicode="(" 
d="M474 719l58 -71c-246 -165 -320 -292 -320 -433c0 -107 49 -219 178 -361l-83 -60c-142 163 -199 296 -199 420c0 167 100 319 366 505z" />
    <glyph glyph-name="parenleft.cap" 
d="M484 768l58 -71c-246 -165 -320 -292 -320 -433c0 -107 49 -219 178 -361l-83 -60c-142 163 -199 296 -199 420c0 167 100 319 366 505z" />
    <glyph glyph-name="parenright" unicode=")" 
d="M67 -210l-58 71c246 164 319 292 319 433c0 106 -48 219 -178 361l84 60c142 -164 199 -296 199 -420c0 -167 -101 -319 -366 -505z" />
    <glyph glyph-name="parenright.cap" 
d="M77 -161l-58 71c246 164 319 292 319 433c0 106 -48 219 -178 361l84 60c142 -164 199 -296 199 -420c0 -167 -101 -319 -366 -505z" />
    <glyph glyph-name="bracketleft" unicode="[" 
d="M55 -179l171 876h317l-17 -86h-211l-136 -705h211l-17 -85h-318z" />
    <glyph glyph-name="bracketleft.cap" 
d="M65 -130l171 876h317l-17 -86h-211l-136 -705h211l-17 -85h-318z" />
    <glyph glyph-name="bracketright" unicode="]" 
d="M491 698l-171 -876h-317l17 85h211l136 705h-211l17 86h318z" />
    <glyph glyph-name="bracketright.cap" 
d="M501 747l-171 -876h-317l17 85h211l136 705h-211l17 86h318z" />
    <glyph glyph-name="braceleft" unicode="{" 
d="M357 -211c-189 84 -260 135 -260 202c0 90 119 122 119 172c0 32 -40 55 -124 67l16 76c118 6 150 29 150 57c0 38 -64 90 -64 153c0 74 81 152 338 213l20 -89c-181 -34 -256 -68 -256 -114c0 -39 61 -98 61 -147c0 -41 -35 -88 -126 -111c66 -22 89 -54 89 -88
c0 -74 -114 -108 -114 -169c0 -45 61 -85 196 -142z" />
    <glyph glyph-name="braceleft.cap" 
d="M367 -162c-189 84 -260 135 -260 202c0 90 119 122 119 172c0 32 -40 55 -124 67l16 76c118 6 150 29 150 57c0 38 -64 90 -64 153c0 74 81 152 338 213l20 -89c-181 -34 -256 -68 -256 -114c0 -39 61 -98 61 -147c0 -41 -35 -88 -126 -111c66 -22 89 -54 89 -88
c0 -74 -114 -108 -114 -169c0 -45 61 -85 196 -142z" />
    <glyph glyph-name="braceright" unicode="}" 
d="M15 -211l-19 90c180 33 256 68 256 113c0 40 -61 98 -61 147c0 41 35 89 126 111c-67 23 -90 55 -90 89c0 74 114 108 114 169c0 44 -60 84 -195 142l44 80c190 -84 260 -136 260 -202c0 -90 -119 -122 -119 -172c0 -32 40 -55 124 -67l-16 -76
c-118 -6 -150 -29 -150 -57c0 -38 64 -90 64 -153c0 -74 -81 -152 -338 -214z" />
    <glyph glyph-name="braceright.cap" 
d="M25 -162l-19 90c180 33 256 68 256 113c0 40 -61 98 -61 147c0 41 35 89 126 111c-67 23 -90 55 -90 89c0 74 114 108 114 169c0 44 -60 84 -195 142l44 80c190 -84 260 -136 260 -202c0 -90 -119 -122 -119 -172c0 -32 40 -55 124 -67l-16 -76
c-118 -6 -150 -29 -150 -57c0 -38 64 -90 64 -153c0 -74 -81 -152 -338 -214z" />
    <glyph glyph-name="at" unicode="@" 
d="M415 -145c-271 -50 -378 66 -378 278c0 280 164 552 373 552c127 0 177 -92 143 -260l-38 -187c-10 -51 -20 -112 -29 -173l-90 1l6 52c-37 -35 -78 -61 -113 -61c-43 0 -74 40 -74 125c0 142 79 300 213 300c12 0 26 -1 40 -3c11 80 -11 125 -74 125
c-133 0 -268 -222 -268 -463c0 -173 80 -245 302 -203zM338 146c18 0 47 12 72 33l41 211c-21 8 -44 12 -56 12c-42 0 -89 -114 -89 -196c0 -42 14 -60 32 -60z" />
    <glyph glyph-name="copyright" unicode="&#xa9;" 
d="M319 613c121 0 207 -86 207 -243c0 -208 -107 -363 -272 -363c-122 0 -213 88 -213 246c0 209 123 360 278 360zM311 556c-115 0 -207 -125 -207 -293c0 -133 70 -199 159 -199c123 0 200 129 200 295c0 134 -66 197 -152 197zM315 473c51 0 77 -39 73 -117l-59 -1
c1 33 -8 50 -26 50c-36 0 -63 -62 -63 -124c0 -61 32 -81 117 -56l-11 -63c-118 -41 -176 11 -176 106c0 107 64 205 145 205z" />
    <glyph glyph-name="published" unicode="&#x2117;" 
d="M41 247c0 214 123 366 278 366c122 0 209 -86 209 -235c0 -218 -125 -371 -283 -371c-119 0 -204 87 -204 240zM104 258c0 -129 65 -194 149 -194c118 0 212 130 212 305c0 124 -67 187 -154 187c-115 0 -207 -127 -207 -298zM232 153h-65l59 307c134 21 182 -22 182 -86
c0 -69 -59 -117 -159 -131z" />
    <glyph glyph-name="registered.alt" 
d="M41 247c0 214 123 366 278 366c122 0 209 -90 209 -238c0 -225 -118 -368 -283 -368c-119 0 -204 87 -204 240zM104 258c0 -129 65 -194 149 -194c125 0 212 118 212 300c0 124 -67 192 -154 192c-115 0 -207 -127 -207 -298zM309 156l-45 123l-12 -2l-23 -117h-66
l59 301c131 19 181 -19 181 -71c0 -37 -33 -73 -79 -98l57 -128z" />
    <glyph glyph-name="registered" unicode="&#xae;" 
d="M325 679c137 0 223 -85 223 -221c0 -160 -104 -271 -253 -271c-136 0 -223 86 -223 222c0 160 105 270 253 270zM323 626c-112 0 -194 -80 -194 -210c0 -112 68 -176 169 -176c111 0 193 80 193 211c0 112 -67 175 -168 175zM341 320l-47 85l-15 -2l-15 -80h-60l44 224
c121 16 165 -15 165 -57c0 -27 -18 -52 -63 -72l54 -91z" />
    <glyph glyph-name="servicemark" unicode="&#x2120;" 
d="M395 345l-16 168h-3l-43 -227h-64l65 333l72 2l20 -183h3l89 182h72l-65 -334h-65l44 227h-2l-82 -168h-25zM281 540l-61 -12c-5 28 -16 43 -34 43c-17 0 -31 -13 -31 -35c0 -54 92 -90 92 -162c0 -59 -57 -114 -205 -79l13 69c91 -32 122 -23 122 6c0 47 -90 81 -90 158
c0 56 44 102 109 102c50 0 76 -32 85 -90z" />
    <glyph glyph-name="trademark" unicode="&#x2122;" 
d="M301 620l-11 -57h-67l-54 -276h-63l53 276h-74l12 57h204zM406 621l20 -183h3l89 182h72l-65 -334h-65l44 227h-2l-82 -168h-25l-16 168h-3l-43 -227h-64l65 333z" />
    <glyph glyph-name="asterisk" unicode="*" 
d="M358 232l-73 135l-135 -74l-43 54l105 110l-115 107l40 58l137 -67l65 141l69 -19l-19 -153l153 -18l3 -68l-153 -30l31 -150z" />
    <glyph glyph-name="asterisk.alt" 
d="M360 537l-52 12l15 151l95 -25zM274 542l-37 -40l-123 88l69 70zM400 458l-17 54l139 62l26 -95zM226 470l17 -54l-139 -62l-26 95zM353 386l37 40l124 -88l-69 -70zM266 391l52 -13l-13 -151l-96 25z" />
    <glyph glyph-name="dagger" unicode="&#x2020;" 
d="M281 133l-74 -27l-14 10l74 349l-150 15l17 85l151 -15l32 149l103 -10l-33 -149l142 -14l-17 -85l-146 14z" />
    <glyph glyph-name="daggerdbl" unicode="&#x2021;" 
d="M270 82l-74 -27l-14 11l43 200l-148 14l17 86l149 -15l24 114l-150 15l17 85l151 -15l32 149l103 -10l-34 -149l143 -14l-17 -85l-147 14l-29 -114l153 -15l-17 -84l-157 15z" />
    <glyph glyph-name="bullet" unicode="&#x2022;" 
d="M416 315c0 -95 -72 -157 -147 -157c-68 0 -122 52 -122 124c0 94 71 156 145 156c73 0 124 -51 124 -123z" />
    <glyph glyph-name="bullet.alt" 
d="M381 178h-241l49 241h240z" />
    <glyph glyph-name="asciicircum" unicode="^" 
d="M423 148l-131 213l-181 -214l-67 57l255 296l21 3l189 -300z" />
    <glyph glyph-name="asciitilde" unicode="~" 
d="M374 191c-83 0 -140 129 -185 129c-27 0 -59 -51 -92 -124l-66 29c52 120 110 194 176 194c81 0 135 -129 180 -129c26 0 59 51 93 124l66 -29c-55 -125 -107 -194 -172 -194z" />
    <glyph glyph-name="dollar" unicode="$" 
d="M212 461c0 -24 28 -51 65 -82l38 124c-72 2 -103 -16 -103 -42zM367 161c0 24 -29 52 -67 84l-38 -128c72 -1 105 17 105 44zM220 -75h-96l32 108c-37 3 -78 9 -124 18l21 97c55 -13 102 -22 142 -27l50 167c-66 52 -134 111 -134 174c0 64 61 127 219 127l31 105h97
l-36 -111c30 -4 64 -9 100 -17l-19 -96c-47 13 -88 21 -123 26l-49 -160c66 -54 136 -114 136 -179c0 -62 -59 -124 -219 -128z" />
    <glyph glyph-name="sterling" unicode="&#xa3;" 
d="M500 137c-63 -175 -123 -165 -336 -105c-29 -29 -65 -45 -104 -45c-117 0 -88 146 56 141c11 43 18 84 24 122h-77l16 79h71c8 57 18 110 43 160c37 75 115 145 209 145c100 0 139 -70 137 -198l-101 -6c0 81 -24 105 -60 105c-40 0 -74 -32 -95 -74
c-18 -36 -26 -82 -32 -132h175l-15 -79h-170c-5 -47 -13 -94 -28 -136c142 -31 189 -42 242 45z" />
    <glyph glyph-name="Euro" unicode="&#x20ac;" 
d="M482 37c-241 -111 -360 -21 -376 144h-78l16 78h61c3 27 7 53 13 78h-61l16 78h70c54 127 156 219 273 219c91 0 136 -52 144 -165l-96 -15c-7 59 -23 89 -73 89c-64 0 -118 -59 -151 -136h218l-17 -70h-224c-6 -25 -10 -50 -11 -75h218l-17 -71h-199
c14 -112 88 -139 264 -90z" />
    <glyph glyph-name="yen" unicode="&#xa5;" 
d="M467 122h-164l-23 -122h-105l24 122h-166l15 79h167l6 27l-16 49h-142l15 78h103l-82 263l108 4l87 -302l190 300h112l-183 -265h100l-15 -78h-138l-39 -56l-4 -20h166z" />
    <glyph glyph-name="cent" unicode="&#xa2;" 
d="M169 261c0 -45 23 -81 84 -106l50 225c-104 -17 -134 -64 -134 -119zM426 26c-44 2 -83 6 -119 12l-25 -122h-96l34 145c-102 37 -152 101 -152 181c0 96 65 205 247 238l28 140h95l-29 -131c30 1 62 1 97 -2l-19 -103c-40 3 -75 4 -105 3l-56 -253c32 -6 71 -11 117 -13
z" />
    <glyph glyph-name="colonmonetary" unicode="&#x20a1;" 
d="M317 138l96 353c-26 -4 -50 -9 -72 -14l-86 -320c18 -7 39 -13 62 -19zM155 286c0 -42 14 -73 44 -97l71 263c-88 -40 -115 -100 -115 -166zM254 -74l34 119c-21 5 -41 11 -59 17l-37 -136h-75l47 165c-71 40 -106 97 -106 177c0 110 55 222 230 284l37 141h75l-32 -118
c21 5 43 9 66 12l28 106h75l-27 -97c19 1 39 2 60 3l-11 -97c-28 -1 -55 -2 -79 -4l-101 -373c25 -4 52 -8 82 -12l-39 -91c-23 3 -45 6 -65 9l-28 -105h-75z" />
    <glyph glyph-name="naira" unicode="&#x20a6;" 
d="M207 452l-41 -217l99 2l-52 215h-6zM363 166h7l40 212l-96 -1zM323 0l-41 167l-130 -2l-31 -165h-84l31 161l-66 -1l17 85l66 1l22 113l-66 -1l16 86h66l34 174l99 4l41 -175l126 1l32 172h81l-33 -172l65 1l-17 -86l-65 -1l-22 -113l66 1l-17 -85l-65 -1l-32 -164h-93z
" />
    <glyph glyph-name="peso" unicode="&#x20b1;" 
d="M423 438c-9 66 -69 112 -180 100l-20 -100h200zM190 269c118 -9 195 31 222 94h-204zM562 356h-56c-40 -99 -161 -165 -336 -186l-33 -170h-99l69 356h-69l17 87h68l34 174c250 36 358 -54 364 -174h58z" />
    <glyph glyph-name="R_p" 
d="M167 -6l-25 233l-13 -3l-45 -224h-82l121 620c148 20 207 -26 207 -116c0 -84 -46 -168 -113 -231l36 -267zM329 -167l-81 -8c21 109 118 613 127 669l75 6l-6 -42c24 30 52 52 78 52c32 0 49 -34 49 -116c0 -164 -75 -403 -186 -403c-7 0 -16 1 -25 3
c-4 -19 -27 -142 -31 -161z" />
    <glyph glyph-name="rupee" unicode="&#x20a8;" 
d="M190 -6l-30 237l-13 -3l-46 -228h-81l120 620c149 20 207 -26 207 -116c0 -84 -45 -168 -113 -230l42 -268zM528 146c0 -77 -31 -164 -225 -155v92c114 -14 130 7 130 55c0 39 -19 84 -34 133c-19 -17 -41 -34 -64 -51l-24 36c30 27 54 50 73 71c-4 17 -6 35 -6 53
c0 83 45 152 106 152c67 0 78 -77 -7 -182c17 -61 51 -130 51 -204z" />
    <glyph glyph-name="rupeeindia" unicode="&#x20b9;" 
d="M445 43l-86 -60c-141 117 -185 151 -309 186l32 80c136 8 203 48 228 97h-219l15 76h213c-13 51 -66 94 -195 107l22 91h406l-23 -93h-195c51 -24 78 -63 86 -105h85l-14 -76h-77c-26 -65 -103 -117 -218 -138c70 -24 132 -70 249 -165z" />
    <glyph glyph-name="ruble" unicode="&#x20bd;" 
d="M451 451c0 64 -54 99 -169 89l-38 -200c144 2 207 40 207 111zM395 110h-196l-21 -110h-105l21 110h-75l15 81h76l13 68c-24 0 -48 -1 -74 0l16 81h74l54 277c255 32 360 -38 360 -149c0 -107 -96 -187 -324 -204l-15 -77h203z" />
    <glyph glyph-name="numbersign" unicode="#" 
d="M218 244l107 18l25 120l-107 -18zM164 -9l-76 -9l33 155l-93 -16l19 94l95 16l25 120l-92 -16l18 94l95 16l35 165l75 10l-35 -162l107 18l34 158l76 10l-33 -155l94 16l-19 -93l-95 -16l-26 -121l94 16l-19 -93l-95 -16l-36 -168l-75 -9l35 164l-107 -19z" />
    <glyph glyph-name="numero" unicode="&#x2116;" 
d="M514 626c51 0 82 -38 82 -128c0 -146 -71 -293 -162 -293c-52 0 -82 38 -82 128c0 146 70 293 162 293zM180 0l-24 374h-3l-64 -374h-88l121 620h77l25 -339h2l59 339h88l-121 -620h-72zM515 89h-212l15 75h212z" />
    <glyph glyph-name="paragraph" unicode="&#xb6;" 
d="M384 176l68 346c-28 3 -53 4 -76 3l-66 -338c22 -6 47 -9 74 -11zM168 342c0 -55 27 -101 79 -130l59 303c-98 -26 -138 -97 -138 -173zM254 -106l-89 -10l46 234c-94 39 -143 111 -143 204c0 186 174 319 492 301l-138 -706l-91 -10l35 179c-26 1 -50 4 -73 8z" />
    <glyph glyph-name="section" unicode="&#xa7;" 
d="M160 254c0 -36 57 -62 118 -92c83 19 118 43 118 70c0 37 -64 63 -127 98c-57 -12 -109 -40 -109 -76zM424 23c0 -85 -115 -172 -405 -116l24 99c207 -52 270 -29 270 10c0 69 -254 97 -254 220c0 67 67 112 151 132c-33 27 -57 58 -57 100c0 81 88 162 211 163
c97 0 141 -55 156 -158l-93 -19c-12 64 -39 90 -86 90s-79 -29 -79 -63c0 -86 236 -120 236 -234c0 -58 -56 -95 -152 -121c44 -27 78 -59 78 -103z" />
    <glyph glyph-name="ordfeminine" unicode="&#xaa;" 
d="M247 322c25 0 63 24 94 54c7 37 23 118 34 172c-22 6 -43 10 -57 10c-66 0 -119 -86 -119 -169c0 -45 22 -67 48 -67zM486 279c-116 -59 -158 -36 -154 34c-43 -38 -92 -68 -132 -68c-51 0 -90 41 -90 119c0 133 94 263 239 263c37 0 80 -5 126 -16l-51 -259
c-8 -41 -4 -49 55 -35zM86 180h369l-14 -71h-368z" />
    <glyph glyph-name="ordmasculine" unicode="&#xba;" 
d="M494 473c0 -121 -92 -228 -216 -228c-93 0 -152 59 -152 155c0 120 93 228 217 228c92 0 151 -59 151 -155zM215 409c0 -59 28 -95 75 -95c69 0 116 71 116 150c0 60 -29 95 -76 95c-69 0 -115 -71 -115 -150zM91 180h338l-14 -71h-337z" />
    <glyph glyph-name="degree" unicode="&#xb0;" 
d="M336 681c97 0 168 -67 168 -173c0 -124 -98 -207 -204 -207c-96 0 -167 67 -167 173c0 124 97 207 203 207zM311 382c60 0 107 47 107 118c0 58 -37 101 -92 101c-60 0 -107 -48 -107 -119c0 -58 37 -100 92 -100z" />
    <glyph glyph-name="percent" unicode="%" 
d="M219 632c42 0 74 -37 74 -100c0 -89 -58 -162 -114 -162c-41 0 -74 36 -74 100c0 89 57 162 114 162zM557 580l-457 -590l-57 49l457 591zM383 -14c-41 0 -74 36 -74 98c0 88 57 165 113 165c42 0 74 -35 74 -98c0 -87 -56 -165 -113 -165z" />
    <glyph glyph-name="quotedbl" unicode="&#x22;" 
d="M432 379h-77l49 294h124l-5 -41zM217 379h-77l49 294h125l-6 -41z" />
    <glyph glyph-name="quotesingle" unicode="'" 
d="M324 379h-79l50 294h130l-4 -41z" />
    <glyph glyph-name="plus" unicode="+" 
d="M496 252h-171l-35 -179h-97l35 179h-173l19 91h171l35 179h97l-35 -179h173z" />
    <glyph glyph-name="minus" unicode="&#x2212;" 
d="M500 343l-19 -91h-411l18 91h412z" />
    <glyph glyph-name="divide" unicode="&#xf7;" 
d="M366 423h-115l23 111h115zM515 343l-19 -91h-441l18 91h442zM296 62h-114l23 110h114z" />
    <glyph glyph-name="equal" unicode="=" 
d="M522 456l-18 -91h-412l19 91h411zM480 236l-19 -91h-412l19 91h412z" />
    <glyph glyph-name="multiply" unicode="&#xd7;" 
d="M391 84l-116 144l-165 -138l-60 73l167 138l-117 145l78 65l116 -145l166 137l58 -73l-165 -137l116 -145z" />
    <glyph glyph-name="less" unicode="&#x3c;" 
d="M471 611l45 -84l-328 -217l-2 -10l249 -250l-74 -72l-280 291l16 91z" />
    <glyph glyph-name="greater" unicode="&#x3e;" 
d="M102 -22l-45 85l328 216l2 11l-250 249l74 72l281 -291l-17 -91z" />
    <glyph glyph-name="plusminus" unicode="&#xb1;" 
d="M450 49h-426l18 90h163l31 157h-165l18 90h164l34 173h98l-34 -173h165l-18 -90h-164l-31 -157h164z" />
    <glyph glyph-name="notequal" unicode="&#x2260;" 
d="M461 145h-216l-80 -144l-78 25l66 119h-104l19 91h136l72 129h-184l19 91h216l80 144l78 -25l-66 -119h103l-18 -91h-136l-72 -129h184z" />
    <glyph glyph-name="lessequal" unicode="&#x2264;" 
d="M214 367l-2 -7l249 -134l-52 -82l-319 176l17 83l383 205l28 -84zM452 99l-17 -92h-412l18 92h411z" />
    <glyph glyph-name="greaterequal" unicode="&#x2265;" 
d="M384 371l-241 158l57 79l303 -207l-14 -83l-387 -175l-20 87l301 134zM452 99l-17 -92h-412l18 92h411z" />
    <glyph glyph-name="approxequal" unicode="&#x2248;" 
d="M375 315c-79 0 -112 96 -157 96c-25 0 -54 -40 -91 -98l-58 32c59 106 108 159 172 159c79 0 109 -96 151 -96c25 0 51 37 86 92l59 -32c-58 -104 -100 -153 -162 -153zM332 95c-79 0 -111 96 -156 96c-25 0 -53 -40 -90 -97l-60 31c59 105 109 159 174 159
c77 0 108 -96 150 -96c25 0 51 37 86 92l59 -32c-59 -104 -101 -153 -163 -153z" />
    <glyph glyph-name="mu" unicode="&#xb5;" 
d="M112 -168l-106 -8l130 670l107 8l-63 -321c-12 -63 -1 -92 37 -92c36 0 81 29 129 86l63 323h104l-71 -364c-11 -55 -7 -66 70 -39l10 -54c-152 -90 -203 -57 -191 49c-53 -66 -100 -99 -151 -99c-16 0 -29 2 -41 7z" />
    <glyph glyph-name="Omega" unicode="&#x2126;" 
d="M196 7l-4 -7h-190l17 88h86c-13 63 -23 124 -23 193c0 197 80 353 255 353c117 0 182 -76 182 -199c0 -99 -40 -212 -122 -347h81l-17 -88h-189l-1 7c95 188 139 315 139 411c0 78 -33 120 -92 120c-95 0 -140 -128 -140 -291c0 -125 7 -176 18 -240z" />
    <glyph glyph-name="onehalf" unicode="&#xbd;" 
d="M460 425h-304l14 70h117l40 200l-114 -3l11 64l118 13l12 59l84 7l-68 -339h107zM57 271l14 68h436l-14 -68h-436zM339 -210h-293v65c151 88 244 147 244 206c0 42 -44 66 -182 48l11 74c174 26 263 -17 263 -101c0 -77 -75 -139 -211 -220h183z" />
    <glyph glyph-name="onethird" unicode="&#x2153;" 
d="M460 425h-304l14 70h117l40 200l-114 -3l11 64l118 13l12 59l84 7l-68 -339h107zM57 271l14 68h436l-14 -68h-436zM360 -94c0 -66 -81 -139 -308 -117l10 75c169 -18 213 8 213 36c0 26 -46 53 -158 74l5 35l170 105h-179l14 71h268l-9 -70l-164 -104
c99 -24 138 -62 138 -105z" />
    <glyph glyph-name="twothirds" unicode="&#x2154;" 
d="M451 425h-293v65c151 88 244 147 244 206c0 42 -44 66 -182 48l11 74c174 26 263 -17 263 -101c0 -77 -75 -139 -211 -220h183zM57 271l14 68h436l-14 -68h-436zM360 -94c0 -66 -81 -139 -308 -117l10 75c169 -18 213 8 213 36c0 26 -46 53 -158 74l5 35l170 105h-179
l14 71h268l-9 -70l-164 -104c99 -24 138 -62 138 -105z" />
    <glyph glyph-name="onequarter" unicode="&#xbc;" 
d="M460 425h-304l14 70h117l40 200l-114 -3l11 64l118 13l12 59l84 7l-68 -339h107zM57 271l14 68h436l-14 -68h-436zM371 -136h-44l-15 -74h-77l14 74h-199l6 58c49 84 82 154 117 268l90 -4c-39 -114 -76 -183 -123 -252h123l23 118l79 6l-25 -124h51z" />
    <glyph glyph-name="threequarters" unicode="&#xbe;" 
d="M472 541c0 -66 -81 -139 -308 -117l10 75c169 -18 213 8 213 36c0 26 -46 53 -158 74l5 35l170 105h-179l14 71h268l-9 -70l-164 -104c99 -24 138 -62 138 -105zM57 271l14 68h436l-14 -68h-436zM371 -136h-44l-15 -74h-77l14 74h-199l6 58c49 84 82 154 117 268l90 -4
c-39 -114 -76 -183 -123 -252h123l23 118l79 6l-25 -124h51z" />
    <glyph glyph-name="onefifth" unicode="&#x2155;" 
d="M460 425h-304l14 70h117l40 200l-114 -3l11 64l118 13l12 59l84 7l-68 -339h107zM57 271l14 68h436l-14 -68h-436zM364 -80c0 -73 -84 -148 -312 -131l9 75c172 -14 220 17 220 49c0 29 -46 55 -183 73l46 199h256l-21 -71h-173l-19 -79c134 -22 177 -66 177 -115z" />
    <glyph glyph-name="twofifths" unicode="&#x2156;" 
d="M451 425h-293v65c151 88 244 147 244 206c0 42 -44 66 -182 48l11 74c174 26 263 -17 263 -101c0 -77 -75 -139 -211 -220h183zM57 271l14 68h436l-14 -68h-436zM364 -80c0 -73 -84 -148 -312 -131l9 75c172 -14 220 17 220 49c0 29 -46 55 -183 73l46 199h256l-21 -71
h-173l-19 -79c134 -22 177 -66 177 -115z" />
    <glyph glyph-name="threefifths" unicode="&#x2157;" 
d="M472 541c0 -66 -81 -139 -308 -117l10 75c169 -18 213 8 213 36c0 26 -46 53 -158 74l5 35l170 105h-179l14 71h268l-9 -70l-164 -104c99 -24 138 -62 138 -105zM57 271l14 68h436l-14 -68h-436zM364 -80c0 -73 -84 -148 -312 -131l9 75c172 -14 220 17 220 49
c0 29 -46 55 -183 73l46 199h256l-21 -71h-173l-19 -79c134 -22 177 -66 177 -115z" />
    <glyph glyph-name="fourfifths" unicode="&#x2158;" 
d="M483 499h-44l-15 -74h-77l14 74h-199l6 58c49 84 82 154 117 268l90 -4c-39 -114 -76 -183 -123 -252h123l23 118l79 6l-25 -124h51zM57 271l14 68h436l-14 -68h-436zM364 -80c0 -73 -84 -148 -312 -131l9 75c172 -14 220 17 220 49c0 29 -46 55 -183 73l46 199h256
l-21 -71h-173l-19 -79c134 -22 177 -66 177 -115z" />
    <glyph glyph-name="onesixth" unicode="&#x2159;" 
d="M460 425h-304l14 70h117l40 200l-114 -3l11 64l118 13l12 59l84 7l-68 -339h107zM57 271l14 68h436l-14 -68h-436zM208 -220c-84 0 -146 47 -146 140c0 111 77 227 287 278l18 -69c-132 -27 -190 -81 -212 -134c105 71 218 30 218 -70c0 -86 -72 -145 -165 -145z
M221 -156c48 0 73 33 73 71c0 59 -69 86 -150 35c-1 -6 -1 -12 -1 -18c0 -64 39 -88 78 -88z" />
    <glyph glyph-name="fivesixths" unicode="&#x215a;" 
d="M476 555c0 -73 -84 -148 -312 -131l9 75c172 -14 220 17 220 49c0 29 -46 55 -183 73l46 199h256l-21 -71h-173l-19 -79c134 -22 177 -66 177 -115zM57 271l14 68h436l-14 -68h-436zM208 -220c-84 0 -146 47 -146 140c0 111 77 227 287 278l18 -69
c-132 -27 -190 -81 -212 -134c105 71 218 30 218 -70c0 -86 -72 -145 -165 -145zM221 -156c48 0 73 33 73 71c0 59 -69 86 -150 35c-1 -6 -1 -12 -1 -18c0 -64 39 -88 78 -88z" />
    <glyph glyph-name="oneeighth" unicode="&#x215b;" 
d="M460 425h-304l14 70h117l40 200l-114 -3l11 64l118 13l12 59l84 7l-68 -339h107zM57 271l14 68h436l-14 -68h-436zM356 -109c0 -62 -67 -111 -165 -111c-86 0 -138 38 -138 92c0 39 21 74 113 127c-31 27 -57 56 -57 89c0 65 88 126 255 102l-29 -78
c-113 28 -147 10 -147 -17c0 -18 21 -38 47 -59c39 19 86 41 143 65l25 -46c-49 -21 -89 -39 -122 -55c39 -32 75 -68 75 -109zM207 -156c42 0 71 19 71 44c0 24 -31 48 -67 76c-66 -37 -78 -57 -78 -74c0 -29 33 -46 74 -46z" />
    <glyph glyph-name="threeeighths" unicode="&#x215c;" 
d="M472 541c0 -66 -81 -139 -308 -117l10 75c169 -18 213 8 213 36c0 26 -46 53 -158 74l5 35l170 105h-179l14 71h268l-9 -70l-164 -104c99 -24 138 -62 138 -105zM57 271l14 68h436l-14 -68h-436zM356 -109c0 -62 -67 -111 -165 -111c-86 0 -138 38 -138 92
c0 39 21 74 113 127c-31 27 -57 56 -57 89c0 65 88 126 255 102l-29 -78c-113 28 -147 10 -147 -17c0 -18 21 -38 47 -59c39 19 86 41 143 65l25 -46c-49 -21 -89 -39 -122 -55c39 -32 75 -68 75 -109zM207 -156c42 0 71 19 71 44c0 24 -31 48 -67 76
c-66 -37 -78 -57 -78 -74c0 -29 33 -46 74 -46z" />
    <glyph glyph-name="fiveeighths" unicode="&#x215d;" 
d="M476 555c0 -73 -84 -148 -312 -131l9 75c172 -14 220 17 220 49c0 29 -46 55 -183 73l46 199h256l-21 -71h-173l-19 -79c134 -22 177 -66 177 -115zM57 271l14 68h436l-14 -68h-436zM356 -109c0 -62 -67 -111 -165 -111c-86 0 -138 38 -138 92c0 39 21 74 113 127
c-31 27 -57 56 -57 89c0 65 88 126 255 102l-29 -78c-113 28 -147 10 -147 -17c0 -18 21 -38 47 -59c39 19 86 41 143 65l25 -46c-49 -21 -89 -39 -122 -55c39 -32 75 -68 75 -109zM207 -156c42 0 71 19 71 44c0 24 -31 48 -67 76c-66 -37 -78 -57 -78 -74
c0 -29 33 -46 74 -46z" />
    <glyph glyph-name="seveneighths" unicode="&#x215e;" 
d="M285 420l-91 9c63 107 140 214 231 316l-1 4h-212l17 72h301l-15 -70c-90 -105 -167 -220 -230 -331zM57 271l14 68h436l-14 -68h-436zM356 -109c0 -62 -67 -111 -165 -111c-86 0 -138 38 -138 92c0 39 21 74 113 127c-31 27 -57 56 -57 89c0 65 88 126 255 102l-29 -78
c-113 28 -147 10 -147 -17c0 -18 21 -38 47 -59c39 19 86 41 143 65l25 -46c-49 -21 -89 -39 -122 -55c39 -32 75 -68 75 -109zM207 -156c42 0 71 19 71 44c0 24 -31 48 -67 76c-66 -37 -78 -57 -78 -74c0 -29 33 -46 74 -46z" />
    <glyph glyph-name="zero.sup" unicode="&#x2070;" 
d="M147 477c0 136 93 255 208 255c82 0 136 -58 136 -160c0 -135 -93 -254 -207 -254c-81 0 -137 58 -137 159zM407 566c0 63 -24 96 -65 96c-66 0 -110 -92 -110 -179c0 -62 24 -94 64 -94c66 0 111 90 111 177z" />
    <glyph glyph-name="one.sup" unicode="&#xb9;" 
d="M440 328h-304l14 70h117l40 200l-114 -3l11 64l118 13l12 59l84 7l-68 -339h107z" />
    <glyph glyph-name="two.sup" unicode="&#xb2;" 
d="M431 328h-293v65c151 88 244 147 244 206c0 42 -44 66 -182 48l11 74c174 26 263 -17 263 -101c0 -77 -75 -139 -211 -220h183z" />
    <glyph glyph-name="three.sup" unicode="&#xb3;" 
d="M452 444c0 -66 -81 -139 -308 -117l10 75c169 -18 213 8 213 36c0 26 -46 53 -158 74l5 35l170 105h-179l14 71h268l-9 -70l-164 -104c99 -24 138 -62 138 -105z" />
    <glyph glyph-name="four.sup" unicode="&#x2074;" 
d="M463 402h-44l-15 -74h-77l14 74h-199l6 58c49 84 82 154 117 268l90 -4c-39 -114 -76 -183 -123 -252h123l23 118l79 6l-25 -124h51z" />
    <glyph glyph-name="five.sup" unicode="&#x2075;" 
d="M456 458c0 -73 -84 -148 -312 -131l9 75c172 -14 220 17 220 49c0 29 -46 55 -183 73l46 199h256l-21 -71h-173l-19 -79c134 -22 177 -66 177 -115z" />
    <glyph glyph-name="six.sup" unicode="&#x2076;" 
d="M300 318c-84 0 -146 47 -146 140c0 111 77 227 287 278l18 -69c-132 -27 -190 -81 -212 -134c105 71 218 30 218 -70c0 -86 -72 -145 -165 -145zM313 382c48 0 73 33 73 71c0 59 -69 86 -150 35c-1 -6 -1 -12 -1 -18c0 -64 39 -88 78 -88z" />
    <glyph glyph-name="seven.sup" unicode="&#x2077;" 
d="M265 323l-91 9c63 107 140 214 231 316l-1 4h-212l17 72h301l-15 -70c-90 -105 -167 -220 -230 -331z" />
    <glyph glyph-name="eight.sup" unicode="&#x2078;" 
d="M448 429c0 -62 -67 -111 -165 -111c-86 0 -138 38 -138 92c0 39 21 74 113 127c-31 27 -57 56 -57 89c0 65 88 126 255 102l-29 -78c-113 28 -147 10 -147 -17c0 -18 21 -38 47 -59c39 19 86 41 143 65l25 -46c-49 -21 -89 -39 -122 -55c39 -32 75 -68 75 -109zM299 382
c42 0 71 19 71 44c0 24 -31 48 -67 76c-66 -37 -78 -57 -78 -74c0 -29 33 -46 74 -46z" />
    <glyph glyph-name="nine.sup" unicode="&#x2079;" 
d="M196 315l-18 69c131 27 189 80 211 133c-104 -69 -217 -29 -217 70c0 86 72 145 165 145c84 0 146 -47 146 -140c0 -111 -77 -226 -287 -277zM251 597c0 -59 69 -85 150 -34c1 6 1 12 1 18c0 64 -39 88 -78 88c-48 0 -73 -33 -73 -72z" />
    <glyph glyph-name="zero.inf" unicode="&#x2080;" 
d="M67 -1c0 136 93 255 208 255c82 0 136 -58 136 -160c0 -135 -93 -254 -207 -254c-81 0 -137 58 -137 159zM327 88c0 63 -24 96 -65 96c-66 0 -110 -92 -110 -179c0 -62 24 -94 64 -94c66 0 111 90 111 177z" />
    <glyph glyph-name="one.inf" unicode="&#x2081;" 
d="M360 -150h-304l14 70h117l40 200l-114 -3l11 64l118 13l12 59l84 7l-68 -339h107z" />
    <glyph glyph-name="two.inf" unicode="&#x2082;" 
d="M351 -150h-293v65c151 88 244 147 244 206c0 42 -44 66 -182 48l11 74c174 26 263 -17 263 -101c0 -77 -75 -139 -211 -220h183z" />
    <glyph glyph-name="three.inf" unicode="&#x2083;" 
d="M372 -34c0 -66 -81 -139 -308 -117l10 75c169 -18 213 8 213 36c0 26 -46 53 -158 74l5 35l170 105h-179l14 71h268l-9 -70l-164 -104c99 -24 138 -62 138 -105z" />
    <glyph glyph-name="four.inf" unicode="&#x2084;" 
d="M383 -76h-44l-15 -74h-77l14 74h-199l6 58c49 84 82 154 117 268l90 -4c-39 -114 -76 -183 -123 -252h123l23 118l79 6l-25 -124h51z" />
    <glyph glyph-name="five.inf" unicode="&#x2085;" 
d="M376 -20c0 -73 -84 -148 -312 -131l9 75c172 -14 220 17 220 49c0 29 -46 55 -183 73l46 199h256l-21 -71h-173l-19 -79c134 -22 177 -66 177 -115z" />
    <glyph glyph-name="six.inf" unicode="&#x2086;" 
d="M220 -160c-84 0 -146 47 -146 140c0 111 77 227 287 278l18 -69c-132 -27 -190 -81 -212 -134c105 71 218 30 218 -70c0 -86 -72 -145 -165 -145zM233 -96c48 0 73 33 73 71c0 59 -69 86 -150 35c-1 -6 -1 -12 -1 -18c0 -64 39 -88 78 -88z" />
    <glyph glyph-name="seven.inf" unicode="&#x2087;" 
d="M185 -155l-91 9c63 107 140 214 231 316l-1 4h-212l17 72h301l-15 -70c-90 -105 -167 -220 -230 -331z" />
    <glyph glyph-name="eight.inf" unicode="&#x2088;" 
d="M368 -49c0 -62 -67 -111 -165 -111c-86 0 -138 38 -138 92c0 39 21 74 113 127c-31 27 -57 56 -57 89c0 65 88 126 255 102l-29 -78c-113 28 -147 10 -147 -17c0 -18 21 -38 47 -59c39 19 86 41 143 65l25 -46c-49 -21 -89 -39 -122 -55c39 -32 75 -68 75 -109zM219 -96
c42 0 71 19 71 44c0 24 -31 48 -67 76c-66 -37 -78 -57 -78 -74c0 -29 33 -46 74 -46z" />
    <glyph glyph-name="nine.inf" unicode="&#x2089;" 
d="M116 -163l-18 69c131 27 189 80 211 133c-104 -69 -217 -29 -217 70c0 86 72 145 165 145c84 0 146 -47 146 -140c0 -111 -77 -226 -287 -277zM171 119c0 -59 69 -85 150 -34c1 6 1 12 1 18c0 64 -39 88 -78 88c-48 0 -73 -33 -73 -72z" />
    <glyph glyph-name="check.1" unicode="&#xe10c;" 
d="M586 633c-132 -197 -246 -406 -343 -649l-94 1l-88 363l99 30l53 -255h6c70 200 159 393 263 556z" />
    <glyph glyph-name="check.2" unicode="&#xe10d;" 
d="M282 -7l-58 190l-141 -191l-67 30l175 249l-78 226l103 27l49 -164l209 321l98 -48l-272 -367l88 -259z" />
    <glyph glyph-name="uni00A0" unicode="&#xa0;" 
 />
    <glyph glyph-name="hcoslug" unicode="&#xe10b;" 
d="M500 700v-800h-450v800h450zM200 296c0 13 8 22 20 22c13 0 22 -11 22 -29c0 -12 -5 -24 -14 -37c-17 16 -28 27 -28 44zM249 232c14 9 24 18 31 25c17 -17 14 -35 -1 -60c-9 11 -18 23 -30 35zM210 139c-22 0 -39 18 -39 41c0 11 4 22 12 30c14 -13 35 -35 56 -62
c-8 -6 -17 -9 -29 -9zM301 173c11 15 23 25 35 32c6 -12 18 -19 32 -19c21 0 37 17 37 40c0 24 -16 39 -37 39c-19 0 -33 -10 -45 -28c-2 20 -17 28 -37 28c5 7 7 15 7 25c0 26 -25 56 -71 56c-51 0 -82 -32 -82 -64c0 -22 7 -35 23 -52c-40 -13 -61 -37 -61 -68
c0 -40 36 -70 81 -70c32 0 57 11 78 34c25 -26 42 -34 64 -34c32 0 59 27 60 71l-5 1c-8 -13 -17 -22 -32 -22s-28 9 -47 31zM229 68l-9 -1v-7h-5v-5h5v-15c0 -6 3 -10 9 -10s9 3 11 10l-4 1c-1 -4 -2 -5 -4 -5s-3 1 -3 4v15h10v5h-10v8zM145 46c0 -10 7 -16 16 -16
s16 7 16 16s-7 15 -16 15s-16 -6 -16 -15zM167 46c0 -9 -2 -12 -6 -12s-6 3 -6 12c0 8 2 11 6 11s6 -3 6 -11zM299 45c0 -6 -2 -10 -5 -10c-5 0 -6 4 -6 10c0 5 1 10 6 10c3 0 5 -4 5 -10zM179 36v-5h16v5h-3v11c0 5 3 8 6 8s4 -3 4 -6v-13h-3v-5h17v5h-5v14
c0 6 -2 11 -9 11c-5 0 -8 -3 -10 -7v6h-13v-5h4v-19h-4zM108 36v-5h23v5h-7v12h3c4 0 4 -1 5 -6h5v17h-5c-1 -5 -1 -6 -5 -6h-3v14h8c6 0 7 -2 9 -10h5v15h-38v-5h6v-31h-6zM241 41v-10h5l1 3c2 -2 5 -4 10 -4c7 0 10 4 10 9c0 11 -18 9 -18 14c0 2 2 3 4 3c3 0 5 -1 8 -5h5
v10h-5l-1 -4c-2 3 -5 4 -8 4c-7 0 -11 -5 -11 -9c0 -12 18 -8 18 -15c0 -1 -1 -3 -4 -3s-6 3 -9 7h-5zM279 69v-39h4l3 6c2 -4 5 -6 11 -6c9 0 12 9 12 16c0 9 -5 15 -12 15c-4 0 -8 -3 -9 -7v20h-14v-5h5zM318 24c2 2 1 7 -4 7c-3 0 -5 -2 -5 -5c0 -4 3 -7 9 -7s10 5 13 12
l10 24h4v5h-13v-5h4l-6 -15l-7 15h4v5h-18v-5h3s9 -18 12 -25c0 -4 -3 -6 -6 -6zM363 0h-14v-6h5c-1 -2 -3 -5 -5 -7c-3 3 -7 8 -9 10c5 3 8 5 8 10s-4 9 -10 9c-9 0 -13 -6 -13 -11c0 -4 2 -7 5 -10c-6 -2 -10 -5 -10 -11s5 -10 12 -10c6 0 10 2 13 5c3 -3 5 -5 9 -5
c6 0 8 4 9 9l-3 1c-1 -3 -2 -4 -3 -4s-3 2 -5 4c3 3 5 6 7 10h4v6zM235 4v4c0 6 2 8 4 8s3 -1 3 -1s-1 -1 -1 -3s2 -4 5 -4v-4h-11zM367 -5c0 -14 8 -21 21 -21c11 0 17 7 18 17h-6c-1 -6 -4 -12 -10 -12c-8 0 -12 6 -12 17c0 12 4 17 10 17s8 -3 11 -12h6v16h-6v-4
c-3 3 -7 5 -12 5c-11 0 -20 -8 -20 -23zM338 -1c-3 3 -5 6 -5 8c0 3 2 4 4 4c3 0 5 -2 5 -5s-2 -6 -4 -7zM270 -12h19c1 10 -3 17 -14 17c-8 0 -15 -6 -15 -16c0 -9 6 -15 16 -15c8 0 12 5 13 11h-5c-1 -4 -3 -6 -7 -6c-5 0 -7 3 -7 9zM200 -12h19c1 10 -3 17 -14 17
c-8 0 -15 -6 -15 -16c0 -9 6 -15 16 -15c8 0 12 5 13 11h-5c-1 -4 -3 -6 -7 -6c-5 0 -7 3 -7 9zM156 -10c0 -10 7 -16 16 -16s16 7 16 16s-7 15 -16 15s-16 -6 -16 -15zM408 -10c0 -10 7 -16 16 -16s16 7 16 16s-7 15 -16 15s-16 -6 -16 -15zM270 -8c0 7 2 9 5 9
c4 0 5 -3 5 -9h-10zM200 -8c0 7 2 9 5 9c4 0 5 -3 5 -9h-10zM178 -10c0 -9 -2 -12 -6 -12s-6 3 -6 12c0 8 2 11 6 11s6 -3 6 -11zM430 -10c0 -9 -2 -12 -6 -12s-6 3 -6 12c0 8 2 11 6 11s6 -3 6 -11zM222 -20v-5h17v5h-4v19h11v-19h-4v-5h17v5h-4v39l-8 -2c-2 1 -4 2 -8 2
c-6 0 -13 -4 -13 -14v-1h-5v-5h5v-19h-4zM291 -20v-5h19v5h-6v12c1 4 4 7 5 7v-1c0 -3 3 -4 5 -4c3 0 5 2 5 5c0 4 -2 6 -6 6s-7 -2 -9 -7v6h-13v-5h4v-19h-4zM108 -20v-5h21v5h-5v14h16v-14h-5v-5h21v5h-6v31h6v5h-21v-5h5v-12h-16v12h5v5h-21v-5h6v-31h-6zM342 -18
c-2 -2 -4 -3 -6 -3c-4 0 -7 3 -7 7c0 3 1 5 3 7c4 -4 8 -9 10 -11zM453 -20c0 3 -2 6 -6 6s-6 -3 -6 -6s2 -6 6 -6s6 3 6 6z" />
    <glyph glyph-name="f.lig" 
d="M411 29c0 -106 -89 -179 -186 -179c-91 0 -155 72 -155 225c0 54 8 111 22 167l-42 16l16 67h51c73 203 218 380 354 380c117 0 131 -132 6 -274l-46 19c59 80 53 143 -2 143c-76 0 -161 -121 -211 -268l283 1l-16 -87l-206 5c93 -74 132 -148 132 -215zM264 -66
c45 0 76 30 76 79c0 62 -45 135 -151 205c-9 -46 -14 -92 -14 -136c0 -113 40 -148 89 -148z" />
    <glyph glyph-name="l.ultra" 
d="M463 63c-222 -129 -359 -82 -359 130c0 274 171 514 320 514c63 0 102 -40 102 -112c0 -123 -101 -281 -307 -446c21 -86 94 -88 228 -32zM386 602c-75 0 -173 -171 -173 -388c151 139 214 260 214 335c0 36 -18 53 -41 53z" />
    <glyph glyph-name="fraction" unicode="&#x2044;" 
d="M34 -160l-85 45l575 872l84 -46z" />
    <glyph glyph-name="fraction.afrc" 
d="M57 271l14 68h436l-14 -68h-436z" />
    <glyph glyph-name="zero.num" 
d="M167 574c0 136 93 255 208 255c82 0 136 -58 136 -160c0 -135 -93 -254 -207 -254c-81 0 -137 58 -137 159zM427 663c0 63 -24 96 -65 96c-66 0 -110 -92 -110 -179c0 -62 24 -94 64 -94c66 0 111 90 111 177z" />
    <glyph glyph-name="one.num" 
d="M460 425h-304l14 70h117l40 200l-114 -3l11 64l118 13l12 59l84 7l-68 -339h107z" />
    <glyph glyph-name="two.num" 
d="M451 425h-293v65c151 88 244 147 244 206c0 42 -44 66 -182 48l11 74c174 26 263 -17 263 -101c0 -77 -75 -139 -211 -220h183z" />
    <glyph glyph-name="three.num" 
d="M472 541c0 -66 -81 -139 -308 -117l10 75c169 -18 213 8 213 36c0 26 -46 53 -158 74l5 35l170 105h-179l14 71h268l-9 -70l-164 -104c99 -24 138 -62 138 -105z" />
    <glyph glyph-name="four.num" 
d="M483 499h-44l-15 -74h-77l14 74h-199l6 58c49 84 82 154 117 268l90 -4c-39 -114 -76 -183 -123 -252h123l23 118l79 6l-25 -124h51z" />
    <glyph glyph-name="five.num" 
d="M476 555c0 -73 -84 -148 -312 -131l9 75c172 -14 220 17 220 49c0 29 -46 55 -183 73l46 199h256l-21 -71h-173l-19 -79c134 -22 177 -66 177 -115z" />
    <glyph glyph-name="six.num" 
d="M320 415c-84 0 -146 47 -146 140c0 111 77 227 287 278l18 -69c-132 -27 -190 -81 -212 -134c105 71 218 30 218 -70c0 -86 -72 -145 -165 -145zM333 479c48 0 73 33 73 71c0 59 -69 86 -150 35c-1 -6 -1 -12 -1 -18c0 -64 39 -88 78 -88z" />
    <glyph glyph-name="seven.num" 
d="M285 420l-91 9c63 107 140 214 231 316l-1 4h-212l17 72h301l-15 -70c-90 -105 -167 -220 -230 -331z" />
    <glyph glyph-name="eight.num" 
d="M468 526c0 -62 -67 -111 -165 -111c-86 0 -138 38 -138 92c0 39 21 74 113 127c-31 27 -57 56 -57 89c0 65 88 126 255 102l-29 -78c-113 28 -147 10 -147 -17c0 -18 21 -38 47 -59c39 19 86 41 143 65l25 -46c-49 -21 -89 -39 -122 -55c39 -32 75 -68 75 -109zM319 479
c42 0 71 19 71 44c0 24 -31 48 -67 76c-66 -37 -78 -57 -78 -74c0 -29 33 -46 74 -46z" />
    <glyph glyph-name="nine.num" 
d="M216 412l-18 69c131 27 189 80 211 133c-104 -69 -217 -29 -217 70c0 86 72 145 165 145c84 0 146 -47 146 -140c0 -111 -77 -226 -287 -277zM271 694c0 -59 69 -85 150 -34c1 6 1 12 1 18c0 64 -39 88 -78 88c-48 0 -73 -33 -73 -72z" />
    <glyph glyph-name="zero.den" 
d="M55 -61c0 136 93 255 208 255c82 0 136 -58 136 -160c0 -135 -93 -254 -207 -254c-81 0 -137 58 -137 159zM315 28c0 63 -24 96 -65 96c-66 0 -110 -92 -110 -179c0 -62 24 -94 64 -94c66 0 111 90 111 177z" />
    <glyph glyph-name="one.den" 
d="M348 -210h-304l14 70h117l40 200l-114 -3l11 64l118 13l12 59l84 7l-68 -339h107z" />
    <glyph glyph-name="two.den" 
d="M339 -210h-293v65c151 88 244 147 244 206c0 42 -44 66 -182 48l11 74c174 26 263 -17 263 -101c0 -77 -75 -139 -211 -220h183z" />
    <glyph glyph-name="three.den" 
d="M360 -94c0 -66 -81 -139 -308 -117l10 75c169 -18 213 8 213 36c0 26 -46 53 -158 74l5 35l170 105h-179l14 71h268l-9 -70l-164 -104c99 -24 138 -62 138 -105z" />
    <glyph glyph-name="four.den" 
d="M371 -136h-44l-15 -74h-77l14 74h-199l6 58c49 84 82 154 117 268l90 -4c-39 -114 -76 -183 -123 -252h123l23 118l79 6l-25 -124h51z" />
    <glyph glyph-name="five.den" 
d="M364 -80c0 -73 -84 -148 -312 -131l9 75c172 -14 220 17 220 49c0 29 -46 55 -183 73l46 199h256l-21 -71h-173l-19 -79c134 -22 177 -66 177 -115z" />
    <glyph glyph-name="six.den" 
d="M208 -220c-84 0 -146 47 -146 140c0 111 77 227 287 278l18 -69c-132 -27 -190 -81 -212 -134c105 71 218 30 218 -70c0 -86 -72 -145 -165 -145zM221 -156c48 0 73 33 73 71c0 59 -69 86 -150 35c-1 -6 -1 -12 -1 -18c0 -64 39 -88 78 -88z" />
    <glyph glyph-name="seven.den" 
d="M173 -215l-91 9c63 107 140 214 231 316l-1 4h-212l17 72h301l-15 -70c-90 -105 -167 -220 -230 -331z" />
    <glyph glyph-name="eight.den" 
d="M356 -109c0 -62 -67 -111 -165 -111c-86 0 -138 38 -138 92c0 39 21 74 113 127c-31 27 -57 56 -57 89c0 65 88 126 255 102l-29 -78c-113 28 -147 10 -147 -17c0 -18 21 -38 47 -59c39 19 86 41 143 65l25 -46c-49 -21 -89 -39 -122 -55c39 -32 75 -68 75 -109z
M207 -156c42 0 71 19 71 44c0 24 -31 48 -67 76c-66 -37 -78 -57 -78 -74c0 -29 33 -46 74 -46z" />
    <glyph glyph-name="nine.den" 
d="M104 -223l-18 69c131 27 189 80 211 133c-104 -69 -217 -29 -217 70c0 86 72 145 165 145c84 0 146 -47 146 -140c0 -111 -77 -226 -287 -277zM159 59c0 -59 69 -85 150 -34c1 6 1 12 1 18c0 64 -39 88 -78 88c-48 0 -73 -33 -73 -72z" />
    <glyph glyph-name="zero.small" 
d="M90 149c0 136 93 255 208 255c82 0 136 -58 136 -160c0 -135 -93 -254 -207 -254c-81 0 -137 58 -137 159zM350 238c0 63 -24 96 -65 96c-66 0 -110 -92 -110 -179c0 -62 24 -94 64 -94c66 0 111 90 111 177z" />
    <glyph glyph-name="one.small" 
d="M383 0h-304l14 70h117l40 200l-114 -3l11 64l118 13l12 59l84 7l-68 -339h107z" />
    <glyph glyph-name="two.small" 
d="M374 0h-293v65c151 88 244 147 244 206c0 42 -44 66 -182 48l11 74c174 26 263 -17 263 -101c0 -77 -75 -139 -211 -220h183z" />
    <glyph glyph-name="three.small" 
d="M395 116c0 -66 -81 -139 -308 -117l10 75c169 -18 213 8 213 36c0 26 -46 53 -158 74l5 35l170 105h-179l14 71h268l-9 -70l-164 -104c99 -24 138 -62 138 -105z" />
    <glyph glyph-name="four.small" 
d="M406 74h-44l-15 -74h-77l14 74h-199l6 58c49 84 82 154 117 268l90 -4c-39 -114 -76 -183 -123 -252h123l23 118l79 6l-25 -124h51z" />
    <glyph glyph-name="five.small" 
d="M399 130c0 -73 -84 -148 -312 -131l9 75c172 -14 220 17 220 49c0 29 -46 55 -183 73l46 199h256l-21 -71h-173l-19 -79c134 -22 177 -66 177 -115z" />
    <glyph glyph-name="six.small" 
d="M243 -10c-84 0 -146 47 -146 140c0 111 77 227 287 278l18 -69c-132 -27 -190 -81 -212 -134c105 71 218 30 218 -70c0 -86 -72 -145 -165 -145zM256 54c48 0 73 33 73 71c0 59 -69 86 -150 35c-1 -6 -1 -12 -1 -18c0 -64 39 -88 78 -88z" />
    <glyph glyph-name="seven.small" 
d="M208 -5l-91 9c63 107 140 214 231 316l-1 4h-212l17 72h301l-15 -70c-90 -105 -167 -220 -230 -331z" />
    <glyph glyph-name="eight.small" 
d="M391 101c0 -62 -67 -111 -165 -111c-86 0 -138 38 -138 92c0 39 21 74 113 127c-31 27 -57 56 -57 89c0 65 88 126 255 102l-29 -78c-113 28 -147 10 -147 -17c0 -18 21 -38 47 -59c39 19 86 41 143 65l25 -46c-49 -21 -89 -39 -122 -55c39 -32 75 -68 75 -109zM242 54
c42 0 71 19 71 44c0 24 -31 48 -67 76c-66 -37 -78 -57 -78 -74c0 -29 33 -46 74 -46z" />
    <glyph glyph-name="nine.small" 
d="M139 -13l-18 69c131 27 189 80 211 133c-104 -69 -217 -29 -217 70c0 86 72 145 165 145c84 0 146 -47 146 -140c0 -111 -77 -226 -287 -277zM194 269c0 -59 69 -85 150 -34c1 6 1 12 1 18c0 64 -39 88 -78 88c-48 0 -73 -33 -73 -72z" />
    <glyph glyph-name="acute" unicode="&#xb4;" 
d="M148 606c64 37 166 111 227 168l70 -84c-72 -51 -200 -105 -277 -131z" />
    <glyph glyph-name="hungarumlaut" unicode="&#x2dd;" 
d="M177 562l-46 36c45 55 102 140 134 197l99 -54c-45 -53 -123 -130 -187 -179zM391 561l-48 36c46 55 98 133 130 190l102 -47c-44 -55 -120 -130 -184 -179z" />
    <glyph glyph-name="caron.alt" 
d="M281 800l118 4c-10 -95 -46 -175 -116 -257l-46 18c39 85 46 157 44 235z" />
    <glyph glyph-name="grave" unicode="`" 
d="M410 599l-24 -44c-70 28 -183 90 -251 138l66 85c59 -59 148 -136 209 -179z" />
    <glyph glyph-name="circumflex" unicode="&#x2c6;" 
d="M394 557l-98 106l-150 -102l-48 55l214 146h6l149 -149z" />
    <glyph glyph-name="caron" unicode="&#x2c7;" 
d="M276 554h-7l-149 149l73 56l98 -105l150 101l48 -54z" />
    <glyph glyph-name="breve" unicode="&#x2d8;" 
d="M431 748l61 -37c-72 -93 -149 -147 -224 -147c-71 0 -130 49 -168 147l80 43c32 -74 63 -106 111 -106c46 0 87 37 140 100z" />
    <glyph glyph-name="tilde" unicode="&#x2dc;" 
d="M364 650c21 0 49 33 84 86l52 -30c-49 -82 -104 -138 -157 -138c-66 0 -100 93 -136 93c-22 0 -49 -32 -83 -85l-53 30c48 82 104 136 157 136c66 0 99 -92 136 -92z" />
    <glyph glyph-name="macron" unicode="&#xaf;" 
d="M464 689l-17 -89h-346l18 89h345z" />
    <glyph glyph-name="dieresis" unicode="&#xa8;" 
d="M439 577l-113 -1l33 134l123 3zM220 575l-114 -1l33 135l123 1z" />
    <glyph glyph-name="dotaccent" unicode="&#x2d9;" 
d="M320 576l-116 -1l33 135l126 1z" />
    <glyph glyph-name="ring" unicode="&#x2da;" 
d="M330 765c75 0 124 -45 124 -99c0 -62 -60 -115 -143 -115c-76 0 -125 45 -125 100c0 62 60 114 144 114z" />
    <glyph glyph-name="commaaccent.rot" 
d="M369 762c-35 -64 -42 -132 -35 -192l-135 -2c9 78 54 157 127 213z" />
    <glyph glyph-name="commaaccent" unicode="&#x326;" 
d="M168 -261c35 64 43 133 35 192l135 2c-9 -78 -54 -157 -126 -213z" />
    <glyph glyph-name="cedilla" unicode="&#xb8;" 
d="M160 -152l-55 18c44 106 94 155 155 155c71 0 128 -63 120 -196l-93 -2c5 88 -11 122 -40 122s-57 -36 -87 -97z" />
    <glyph glyph-name="ogonek" unicode="&#x2db;" 
d="M371 43l30 -42c-130 -35 -180 -74 -180 -106c0 -31 39 -47 137 -14l11 -49c-160 -79 -245 -36 -245 31c0 58 68 124 247 180z" />
    <glyph glyph-name="underscore.alt" 
d="M511 -51l-16 -82h-570l16 82h570z" />
    </font>
</defs>
</svg>
